<?xml version="1.0" encoding="utf-8" standalone="no"?>
<!DOCTYPE svg PUBLIC "-//W3C//DTD SVG 1.1//EN"
  "http://www.w3.org/Graphics/SVG/1.1/DTD/svg11.dtd">
<svg xmlns:xlink="http://www.w3.org/1999/xlink" width="576pt" height="720pt" viewBox="0 0 576 720" xmlns="http://www.w3.org/2000/svg" version="1.1">
 <metadata>
  <rdf:RDF xmlns:dc="http://purl.org/dc/elements/1.1/" xmlns:cc="http://creativecommons.org/ns#" xmlns:rdf="http://www.w3.org/1999/02/22-rdf-syntax-ns#">
   <cc:Work>
    <dc:type rdf:resource="http://purl.org/dc/dcmitype/StillImage"/>
    <dc:date>2022-01-19T21:03:15.832149</dc:date>
    <dc:format>image/svg+xml</dc:format>
    <dc:creator>
     <cc:Agent>
      <dc:title>Matplotlib v3.5.1, https://matplotlib.org/</dc:title>
     </cc:Agent>
    </dc:creator>
   </cc:Work>
  </rdf:RDF>
 </metadata>
 <defs>
  <style type="text/css">*{stroke-linejoin: round; stroke-linecap: butt}</style>
 </defs>
 <g id="figure_1">
  <g id="patch_1">
   <path d="M 0 720 
L 576 720 
L 576 0 
L 0 0 
L 0 720 
z
" style="fill: none"/>
  </g>
  <g id="axes_1">
   <g id="patch_2">
    <path d="M 42.875 216.333333 
L 548.0625 216.333333 
L 548.0625 24 
L 42.875 24 
z
" style="fill: #ffffff"/>
   </g>
   <g id="patch_3">
    <path d="M 65.838068 216.333333 
L 73.556747 216.333333 
L 73.556747 38.900489 
L 65.838068 38.900489 
z
" clip-path="url(#p22d689bc02)" style="fill: #2e8b57"/>
   </g>
   <g id="patch_4">
    <path d="M 85.134764 216.333333 
L 92.853443 216.333333 
L 92.853443 33.15873 
L 85.134764 33.15873 
z
" clip-path="url(#p22d689bc02)" style="fill: #2e8b57"/>
   </g>
   <g id="patch_5">
    <path d="M 104.43146 216.333333 
L 112.150138 216.333333 
L 112.150138 41.459317 
L 104.43146 41.459317 
z
" clip-path="url(#p22d689bc02)" style="fill: #2e8b57"/>
   </g>
   <g id="patch_6">
    <path d="M 123.728156 216.333333 
L 131.446834 216.333333 
L 131.446834 42.728329 
L 123.728156 42.728329 
z
" clip-path="url(#p22d689bc02)" style="fill: #2e8b57"/>
   </g>
   <g id="patch_7">
    <path d="M 143.024852 216.333333 
L 150.74353 216.333333 
L 150.74353 57.061924 
L 143.024852 57.061924 
z
" clip-path="url(#p22d689bc02)" style="fill: #2e8b57"/>
   </g>
   <g id="patch_8">
    <path d="M 162.321548 216.333333 
L 170.040226 216.333333 
L 170.040226 69.772847 
L 162.321548 69.772847 
z
" clip-path="url(#p22d689bc02)" style="fill: #2e8b57"/>
   </g>
   <g id="patch_9">
    <path d="M 181.618244 216.333333 
L 189.336922 216.333333 
L 189.336922 86.457235 
L 181.618244 86.457235 
z
" clip-path="url(#p22d689bc02)" style="fill: #2e8b57"/>
   </g>
   <g id="patch_10">
    <path d="M 200.91494 216.333333 
L 208.633618 216.333333 
L 208.633618 90.118647 
L 200.91494 90.118647 
z
" clip-path="url(#p22d689bc02)" style="fill: #2e8b57"/>
   </g>
   <g id="patch_11">
    <path d="M 220.211636 216.333333 
L 227.930314 216.333333 
L 227.930314 109.881948 
L 220.211636 109.881948 
z
" clip-path="url(#p22d689bc02)" style="fill: #2e8b57"/>
   </g>
   <g id="patch_12">
    <path d="M 239.508332 216.333333 
L 247.22701 216.333333 
L 247.22701 123.23778 
L 239.508332 123.23778 
z
" clip-path="url(#p22d689bc02)" style="fill: #2e8b57"/>
   </g>
   <g id="patch_13">
    <path d="M 258.805028 216.333333 
L 266.523706 216.333333 
L 266.523706 129.291591 
L 258.805028 129.291591 
z
" clip-path="url(#p22d689bc02)" style="fill: #2e8b57"/>
   </g>
   <g id="patch_14">
    <path d="M 278.101724 216.333333 
L 285.820402 216.333333 
L 285.820402 125.401341 
L 278.101724 125.401341 
z
" clip-path="url(#p22d689bc02)" style="fill: #2e8b57"/>
   </g>
   <g id="patch_15">
    <path d="M 297.39842 216.333333 
L 305.117098 216.333333 
L 305.117098 141.79448 
L 297.39842 141.79448 
z
" clip-path="url(#p22d689bc02)" style="fill: #2e8b57"/>
   </g>
   <g id="patch_16">
    <path d="M 316.695116 216.333333 
L 324.413794 216.333333 
L 324.413794 142.064925 
L 316.695116 142.064925 
z
" clip-path="url(#p22d689bc02)" style="fill: #2e8b57"/>
   </g>
   <g id="patch_17">
    <path d="M 335.991811 216.333333 
L 343.71049 216.333333 
L 343.71049 138.736369 
L 335.991811 138.736369 
z
" clip-path="url(#p22d689bc02)" style="fill: #2e8b57"/>
   </g>
   <g id="patch_18">
    <path d="M 355.288507 216.333333 
L 363.007186 216.333333 
L 363.007186 142.168943 
L 355.288507 142.168943 
z
" clip-path="url(#p22d689bc02)" style="fill: #2e8b57"/>
   </g>
   <g id="patch_19">
    <path d="M 374.585203 216.333333 
L 382.303882 216.333333 
L 382.303882 138.611548 
L 374.585203 138.611548 
z
" clip-path="url(#p22d689bc02)" style="fill: #2e8b57"/>
   </g>
   <g id="patch_20">
    <path d="M 393.881899 216.333333 
L 401.600578 216.333333 
L 401.600578 150.989616 
L 393.881899 150.989616 
z
" clip-path="url(#p22d689bc02)" style="fill: #2e8b57"/>
   </g>
   <g id="patch_21">
    <path d="M 413.178595 216.333333 
L 420.897274 216.333333 
L 420.897274 148.55561 
L 413.178595 148.55561 
z
" clip-path="url(#p22d689bc02)" style="fill: #2e8b57"/>
   </g>
   <g id="patch_22">
    <path d="M 432.475291 216.333333 
L 440.19397 216.333333 
L 440.19397 140.109399 
L 432.475291 140.109399 
z
" clip-path="url(#p22d689bc02)" style="fill: #2e8b57"/>
   </g>
   <g id="patch_23">
    <path d="M 451.771987 216.333333 
L 459.490666 216.333333 
L 459.490666 138.049854 
L 451.771987 138.049854 
z
" clip-path="url(#p22d689bc02)" style="fill: #2e8b57"/>
   </g>
   <g id="patch_24">
    <path d="M 471.068683 216.333333 
L 478.787362 216.333333 
L 478.787362 115.852546 
L 471.068683 115.852546 
z
" clip-path="url(#p22d689bc02)" style="fill: #2e8b57"/>
   </g>
   <g id="patch_25">
    <path d="M 490.365379 216.333333 
L 498.084057 216.333333 
L 498.084057 87.226963 
L 490.365379 87.226963 
z
" clip-path="url(#p22d689bc02)" style="fill: #2e8b57"/>
   </g>
   <g id="patch_26">
    <path d="M 509.662075 216.333333 
L 517.380753 216.333333 
L 517.380753 52.651587 
L 509.662075 52.651587 
z
" clip-path="url(#p22d689bc02)" style="fill: #2e8b57"/>
   </g>
   <g id="patch_27">
    <path d="M 73.556747 216.333333 
L 81.275425 216.333333 
L 81.275425 114.354696 
L 73.556747 114.354696 
z
" clip-path="url(#p22d689bc02)" style="fill: #cd5c5c"/>
   </g>
   <g id="patch_28">
    <path d="M 92.853443 216.333333 
L 100.572121 216.333333 
L 100.572121 126.025445 
L 92.853443 126.025445 
z
" clip-path="url(#p22d689bc02)" style="fill: #cd5c5c"/>
   </g>
   <g id="patch_29">
    <path d="M 112.150138 216.333333 
L 119.868817 216.333333 
L 119.868817 121.906357 
L 112.150138 121.906357 
z
" clip-path="url(#p22d689bc02)" style="fill: #cd5c5c"/>
   </g>
   <g id="patch_30">
    <path d="M 131.446834 216.333333 
L 139.165513 216.333333 
L 139.165513 119.493154 
L 131.446834 119.493154 
z
" clip-path="url(#p22d689bc02)" style="fill: #cd5c5c"/>
   </g>
   <g id="patch_31">
    <path d="M 150.74353 216.333333 
L 158.462209 216.333333 
L 158.462209 118.099321 
L 150.74353 118.099321 
z
" clip-path="url(#p22d689bc02)" style="fill: #cd5c5c"/>
   </g>
   <g id="patch_32">
    <path d="M 170.040226 216.333333 
L 177.758905 216.333333 
L 177.758905 119.909224 
L 170.040226 119.909224 
z
" clip-path="url(#p22d689bc02)" style="fill: #cd5c5c"/>
   </g>
   <g id="patch_33">
    <path d="M 189.336922 216.333333 
L 197.055601 216.333333 
L 197.055601 122.863317 
L 189.336922 122.863317 
z
" clip-path="url(#p22d689bc02)" style="fill: #cd5c5c"/>
   </g>
   <g id="patch_34">
    <path d="M 208.633618 216.333333 
L 216.352297 216.333333 
L 216.352297 123.341797 
L 208.633618 123.341797 
z
" clip-path="url(#p22d689bc02)" style="fill: #cd5c5c"/>
   </g>
   <g id="patch_35">
    <path d="M 227.930314 216.333333 
L 235.648993 216.333333 
L 235.648993 127.440082 
L 227.930314 127.440082 
z
" clip-path="url(#p22d689bc02)" style="fill: #cd5c5c"/>
   </g>
   <g id="patch_36">
    <path d="M 247.22701 216.333333 
L 254.945689 216.333333 
L 254.945689 136.968074 
L 247.22701 136.968074 
z
" clip-path="url(#p22d689bc02)" style="fill: #cd5c5c"/>
   </g>
   <g id="patch_37">
    <path d="M 266.523706 216.333333 
L 274.242384 216.333333 
L 274.242384 145.289464 
L 266.523706 145.289464 
z
" clip-path="url(#p22d689bc02)" style="fill: #cd5c5c"/>
   </g>
   <g id="patch_38">
    <path d="M 285.820402 216.333333 
L 293.53908 216.333333 
L 293.53908 142.917868 
L 285.820402 142.917868 
z
" clip-path="url(#p22d689bc02)" style="fill: #cd5c5c"/>
   </g>
   <g id="patch_39">
    <path d="M 305.117098 216.333333 
L 312.835776 216.333333 
L 312.835776 147.910702 
L 305.117098 147.910702 
z
" clip-path="url(#p22d689bc02)" style="fill: #cd5c5c"/>
   </g>
   <g id="patch_40">
    <path d="M 324.413794 216.333333 
L 332.132472 216.333333 
L 332.132472 150.157477 
L 324.413794 150.157477 
z
" clip-path="url(#p22d689bc02)" style="fill: #cd5c5c"/>
   </g>
   <g id="patch_41">
    <path d="M 343.71049 216.333333 
L 351.429168 216.333333 
L 351.429168 149.470963 
L 343.71049 149.470963 
z
" clip-path="url(#p22d689bc02)" style="fill: #cd5c5c"/>
   </g>
   <g id="patch_42">
    <path d="M 363.007186 216.333333 
L 370.725864 216.333333 
L 370.725864 145.455892 
L 363.007186 145.455892 
z
" clip-path="url(#p22d689bc02)" style="fill: #cd5c5c"/>
   </g>
   <g id="patch_43">
    <path d="M 382.303882 216.333333 
L 390.02256 216.333333 
L 390.02256 142.501798 
L 382.303882 142.501798 
z
" clip-path="url(#p22d689bc02)" style="fill: #cd5c5c"/>
   </g>
   <g id="patch_44">
    <path d="M 401.600578 216.333333 
L 409.319256 216.333333 
L 409.319256 151.239258 
L 401.600578 151.239258 
z
" clip-path="url(#p22d689bc02)" style="fill: #cd5c5c"/>
   </g>
   <g id="patch_45">
    <path d="M 420.897274 216.333333 
L 428.615952 216.333333 
L 428.615952 152.633091 
L 420.897274 152.633091 
z
" clip-path="url(#p22d689bc02)" style="fill: #cd5c5c"/>
   </g>
   <g id="patch_46">
    <path d="M 440.19397 216.333333 
L 447.912648 216.333333 
L 447.912648 148.222754 
L 440.19397 148.222754 
z
" clip-path="url(#p22d689bc02)" style="fill: #cd5c5c"/>
   </g>
   <g id="patch_47">
    <path d="M 459.490666 216.333333 
L 467.209344 216.333333 
L 467.209344 150.677564 
L 459.490666 150.677564 
z
" clip-path="url(#p22d689bc02)" style="fill: #cd5c5c"/>
   </g>
   <g id="patch_48">
    <path d="M 478.787362 216.333333 
L 486.50604 216.333333 
L 486.50604 132.51613 
L 478.787362 132.51613 
z
" clip-path="url(#p22d689bc02)" style="fill: #cd5c5c"/>
   </g>
   <g id="patch_49">
    <path d="M 498.084057 216.333333 
L 505.802736 216.333333 
L 505.802736 119.82601 
L 498.084057 119.82601 
z
" clip-path="url(#p22d689bc02)" style="fill: #cd5c5c"/>
   </g>
   <g id="patch_50">
    <path d="M 517.380753 216.333333 
L 525.099432 216.333333 
L 525.099432 109.840341 
L 517.380753 109.840341 
z
" clip-path="url(#p22d689bc02)" style="fill: #cd5c5c"/>
   </g>
   <g id="matplotlib.axis_1">
    <g id="xtick_1">
     <g id="line2d_1">
      <defs>
       <path id="m268e3e93c9" d="M 0 0 
L 0 3.5 
" style="stroke: #000000; stroke-width: 0.8"/>
      </defs>
      <g>
       <use xlink:href="#m268e3e93c9" x="73.556747" y="216.333333" style="stroke: #000000; stroke-width: 0.8"/>
      </g>
     </g>
     <g id="text_1">
      <!-- 0 -->
      <g transform="translate(70.375497 230.931771)scale(0.1 -0.1)">
       <defs>
        <path id="DejaVuSans-30" d="M 2034 4250 
Q 1547 4250 1301 3770 
Q 1056 3291 1056 2328 
Q 1056 1369 1301 889 
Q 1547 409 2034 409 
Q 2525 409 2770 889 
Q 3016 1369 3016 2328 
Q 3016 3291 2770 3770 
Q 2525 4250 2034 4250 
z
M 2034 4750 
Q 2819 4750 3233 4129 
Q 3647 3509 3647 2328 
Q 3647 1150 3233 529 
Q 2819 -91 2034 -91 
Q 1250 -91 836 529 
Q 422 1150 422 2328 
Q 422 3509 836 4129 
Q 1250 4750 2034 4750 
z
" transform="scale(0.015625)"/>
       </defs>
       <use xlink:href="#DejaVuSans-30"/>
      </g>
     </g>
    </g>
    <g id="xtick_2">
     <g id="line2d_2">
      <g>
       <use xlink:href="#m268e3e93c9" x="150.74353" y="216.333333" style="stroke: #000000; stroke-width: 0.8"/>
      </g>
     </g>
     <g id="text_2">
      <!-- 4 -->
      <g transform="translate(147.56228 230.931771)scale(0.1 -0.1)">
       <defs>
        <path id="DejaVuSans-34" d="M 2419 4116 
L 825 1625 
L 2419 1625 
L 2419 4116 
z
M 2253 4666 
L 3047 4666 
L 3047 1625 
L 3713 1625 
L 3713 1100 
L 3047 1100 
L 3047 0 
L 2419 0 
L 2419 1100 
L 313 1100 
L 313 1709 
L 2253 4666 
z
" transform="scale(0.015625)"/>
       </defs>
       <use xlink:href="#DejaVuSans-34"/>
      </g>
     </g>
    </g>
    <g id="xtick_3">
     <g id="line2d_3">
      <g>
       <use xlink:href="#m268e3e93c9" x="227.930314" y="216.333333" style="stroke: #000000; stroke-width: 0.8"/>
      </g>
     </g>
     <g id="text_3">
      <!-- 8 -->
      <g transform="translate(224.749064 230.931771)scale(0.1 -0.1)">
       <defs>
        <path id="DejaVuSans-38" d="M 2034 2216 
Q 1584 2216 1326 1975 
Q 1069 1734 1069 1313 
Q 1069 891 1326 650 
Q 1584 409 2034 409 
Q 2484 409 2743 651 
Q 3003 894 3003 1313 
Q 3003 1734 2745 1975 
Q 2488 2216 2034 2216 
z
M 1403 2484 
Q 997 2584 770 2862 
Q 544 3141 544 3541 
Q 544 4100 942 4425 
Q 1341 4750 2034 4750 
Q 2731 4750 3128 4425 
Q 3525 4100 3525 3541 
Q 3525 3141 3298 2862 
Q 3072 2584 2669 2484 
Q 3125 2378 3379 2068 
Q 3634 1759 3634 1313 
Q 3634 634 3220 271 
Q 2806 -91 2034 -91 
Q 1263 -91 848 271 
Q 434 634 434 1313 
Q 434 1759 690 2068 
Q 947 2378 1403 2484 
z
M 1172 3481 
Q 1172 3119 1398 2916 
Q 1625 2713 2034 2713 
Q 2441 2713 2670 2916 
Q 2900 3119 2900 3481 
Q 2900 3844 2670 4047 
Q 2441 4250 2034 4250 
Q 1625 4250 1398 4047 
Q 1172 3844 1172 3481 
z
" transform="scale(0.015625)"/>
       </defs>
       <use xlink:href="#DejaVuSans-38"/>
      </g>
     </g>
    </g>
    <g id="xtick_4">
     <g id="line2d_4">
      <g>
       <use xlink:href="#m268e3e93c9" x="305.117098" y="216.333333" style="stroke: #000000; stroke-width: 0.8"/>
      </g>
     </g>
     <g id="text_4">
      <!-- 12 -->
      <g transform="translate(298.754598 230.931771)scale(0.1 -0.1)">
       <defs>
        <path id="DejaVuSans-31" d="M 794 531 
L 1825 531 
L 1825 4091 
L 703 3866 
L 703 4441 
L 1819 4666 
L 2450 4666 
L 2450 531 
L 3481 531 
L 3481 0 
L 794 0 
L 794 531 
z
" transform="scale(0.015625)"/>
        <path id="DejaVuSans-32" d="M 1228 531 
L 3431 531 
L 3431 0 
L 469 0 
L 469 531 
Q 828 903 1448 1529 
Q 2069 2156 2228 2338 
Q 2531 2678 2651 2914 
Q 2772 3150 2772 3378 
Q 2772 3750 2511 3984 
Q 2250 4219 1831 4219 
Q 1534 4219 1204 4116 
Q 875 4013 500 3803 
L 500 4441 
Q 881 4594 1212 4672 
Q 1544 4750 1819 4750 
Q 2544 4750 2975 4387 
Q 3406 4025 3406 3419 
Q 3406 3131 3298 2873 
Q 3191 2616 2906 2266 
Q 2828 2175 2409 1742 
Q 1991 1309 1228 531 
z
" transform="scale(0.015625)"/>
       </defs>
       <use xlink:href="#DejaVuSans-31"/>
       <use xlink:href="#DejaVuSans-32" x="63.623047"/>
      </g>
     </g>
    </g>
    <g id="xtick_5">
     <g id="line2d_5">
      <g>
       <use xlink:href="#m268e3e93c9" x="382.303882" y="216.333333" style="stroke: #000000; stroke-width: 0.8"/>
      </g>
     </g>
     <g id="text_5">
      <!-- 16 -->
      <g transform="translate(375.941382 230.931771)scale(0.1 -0.1)">
       <defs>
        <path id="DejaVuSans-36" d="M 2113 2584 
Q 1688 2584 1439 2293 
Q 1191 2003 1191 1497 
Q 1191 994 1439 701 
Q 1688 409 2113 409 
Q 2538 409 2786 701 
Q 3034 994 3034 1497 
Q 3034 2003 2786 2293 
Q 2538 2584 2113 2584 
z
M 3366 4563 
L 3366 3988 
Q 3128 4100 2886 4159 
Q 2644 4219 2406 4219 
Q 1781 4219 1451 3797 
Q 1122 3375 1075 2522 
Q 1259 2794 1537 2939 
Q 1816 3084 2150 3084 
Q 2853 3084 3261 2657 
Q 3669 2231 3669 1497 
Q 3669 778 3244 343 
Q 2819 -91 2113 -91 
Q 1303 -91 875 529 
Q 447 1150 447 2328 
Q 447 3434 972 4092 
Q 1497 4750 2381 4750 
Q 2619 4750 2861 4703 
Q 3103 4656 3366 4563 
z
" transform="scale(0.015625)"/>
       </defs>
       <use xlink:href="#DejaVuSans-31"/>
       <use xlink:href="#DejaVuSans-36" x="63.623047"/>
      </g>
     </g>
    </g>
    <g id="xtick_6">
     <g id="line2d_6">
      <g>
       <use xlink:href="#m268e3e93c9" x="459.490666" y="216.333333" style="stroke: #000000; stroke-width: 0.8"/>
      </g>
     </g>
     <g id="text_6">
      <!-- 20 -->
      <g transform="translate(453.128166 230.931771)scale(0.1 -0.1)">
       <use xlink:href="#DejaVuSans-32"/>
       <use xlink:href="#DejaVuSans-30" x="63.623047"/>
      </g>
     </g>
    </g>
   </g>
   <g id="matplotlib.axis_2">
    <g id="ytick_1">
     <g id="line2d_7">
      <defs>
       <path id="mca7bba73b9" d="M 0 0 
L -3.5 0 
" style="stroke: #000000; stroke-width: 0.8"/>
      </defs>
      <g>
       <use xlink:href="#mca7bba73b9" x="42.875" y="216.333333" style="stroke: #000000; stroke-width: 0.8"/>
      </g>
     </g>
     <g id="text_7">
      <!-- 0 -->
      <g transform="translate(29.5125 220.132552)scale(0.1 -0.1)">
       <use xlink:href="#DejaVuSans-30"/>
      </g>
     </g>
    </g>
    <g id="ytick_2">
     <g id="line2d_8">
      <g>
       <use xlink:href="#mca7bba73b9" x="42.875" y="174.726382" style="stroke: #000000; stroke-width: 0.8"/>
      </g>
     </g>
     <g id="text_8">
      <!-- 2000 -->
      <g transform="translate(10.425 178.525601)scale(0.1 -0.1)">
       <use xlink:href="#DejaVuSans-32"/>
       <use xlink:href="#DejaVuSans-30" x="63.623047"/>
       <use xlink:href="#DejaVuSans-30" x="127.246094"/>
       <use xlink:href="#DejaVuSans-30" x="190.869141"/>
      </g>
     </g>
    </g>
    <g id="ytick_3">
     <g id="line2d_9">
      <g>
       <use xlink:href="#mca7bba73b9" x="42.875" y="133.119431" style="stroke: #000000; stroke-width: 0.8"/>
      </g>
     </g>
     <g id="text_9">
      <!-- 4000 -->
      <g transform="translate(10.425 136.918649)scale(0.1 -0.1)">
       <use xlink:href="#DejaVuSans-34"/>
       <use xlink:href="#DejaVuSans-30" x="63.623047"/>
       <use xlink:href="#DejaVuSans-30" x="127.246094"/>
       <use xlink:href="#DejaVuSans-30" x="190.869141"/>
      </g>
     </g>
    </g>
    <g id="ytick_4">
     <g id="line2d_10">
      <g>
       <use xlink:href="#mca7bba73b9" x="42.875" y="91.512479" style="stroke: #000000; stroke-width: 0.8"/>
      </g>
     </g>
     <g id="text_10">
      <!-- 6000 -->
      <g transform="translate(10.425 95.311698)scale(0.1 -0.1)">
       <use xlink:href="#DejaVuSans-36"/>
       <use xlink:href="#DejaVuSans-30" x="63.623047"/>
       <use xlink:href="#DejaVuSans-30" x="127.246094"/>
       <use xlink:href="#DejaVuSans-30" x="190.869141"/>
      </g>
     </g>
    </g>
    <g id="ytick_5">
     <g id="line2d_11">
      <g>
       <use xlink:href="#mca7bba73b9" x="42.875" y="49.905528" style="stroke: #000000; stroke-width: 0.8"/>
      </g>
     </g>
     <g id="text_11">
      <!-- 8000 -->
      <g transform="translate(10.425 53.704747)scale(0.1 -0.1)">
       <use xlink:href="#DejaVuSans-38"/>
       <use xlink:href="#DejaVuSans-30" x="63.623047"/>
       <use xlink:href="#DejaVuSans-30" x="127.246094"/>
       <use xlink:href="#DejaVuSans-30" x="190.869141"/>
      </g>
     </g>
    </g>
   </g>
   <g id="patch_51">
    <path d="M 42.875 216.333333 
L 42.875 24 
" style="fill: none; stroke: #000000; stroke-width: 0.8; stroke-linejoin: miter; stroke-linecap: square"/>
   </g>
   <g id="patch_52">
    <path d="M 548.0625 216.333333 
L 548.0625 24 
" style="fill: none; stroke: #000000; stroke-width: 0.8; stroke-linejoin: miter; stroke-linecap: square"/>
   </g>
   <g id="patch_53">
    <path d="M 42.875 216.333333 
L 548.0625 216.333333 
" style="fill: none; stroke: #000000; stroke-width: 0.8; stroke-linejoin: miter; stroke-linecap: square"/>
   </g>
   <g id="patch_54">
    <path d="M 42.875 24 
L 548.0625 24 
" style="fill: none; stroke: #000000; stroke-width: 0.8; stroke-linejoin: miter; stroke-linecap: square"/>
   </g>
   <g id="text_12">
    <!-- Hour of day -->
    <g transform="translate(260.381875 18)scale(0.12 -0.12)">
     <defs>
      <path id="DejaVuSans-48" d="M 628 4666 
L 1259 4666 
L 1259 2753 
L 3553 2753 
L 3553 4666 
L 4184 4666 
L 4184 0 
L 3553 0 
L 3553 2222 
L 1259 2222 
L 1259 0 
L 628 0 
L 628 4666 
z
" transform="scale(0.015625)"/>
      <path id="DejaVuSans-6f" d="M 1959 3097 
Q 1497 3097 1228 2736 
Q 959 2375 959 1747 
Q 959 1119 1226 758 
Q 1494 397 1959 397 
Q 2419 397 2687 759 
Q 2956 1122 2956 1747 
Q 2956 2369 2687 2733 
Q 2419 3097 1959 3097 
z
M 1959 3584 
Q 2709 3584 3137 3096 
Q 3566 2609 3566 1747 
Q 3566 888 3137 398 
Q 2709 -91 1959 -91 
Q 1206 -91 779 398 
Q 353 888 353 1747 
Q 353 2609 779 3096 
Q 1206 3584 1959 3584 
z
" transform="scale(0.015625)"/>
      <path id="DejaVuSans-75" d="M 544 1381 
L 544 3500 
L 1119 3500 
L 1119 1403 
Q 1119 906 1312 657 
Q 1506 409 1894 409 
Q 2359 409 2629 706 
Q 2900 1003 2900 1516 
L 2900 3500 
L 3475 3500 
L 3475 0 
L 2900 0 
L 2900 538 
Q 2691 219 2414 64 
Q 2138 -91 1772 -91 
Q 1169 -91 856 284 
Q 544 659 544 1381 
z
M 1991 3584 
L 1991 3584 
z
" transform="scale(0.015625)"/>
      <path id="DejaVuSans-72" d="M 2631 2963 
Q 2534 3019 2420 3045 
Q 2306 3072 2169 3072 
Q 1681 3072 1420 2755 
Q 1159 2438 1159 1844 
L 1159 0 
L 581 0 
L 581 3500 
L 1159 3500 
L 1159 2956 
Q 1341 3275 1631 3429 
Q 1922 3584 2338 3584 
Q 2397 3584 2469 3576 
Q 2541 3569 2628 3553 
L 2631 2963 
z
" transform="scale(0.015625)"/>
      <path id="DejaVuSans-20" transform="scale(0.015625)"/>
      <path id="DejaVuSans-66" d="M 2375 4863 
L 2375 4384 
L 1825 4384 
Q 1516 4384 1395 4259 
Q 1275 4134 1275 3809 
L 1275 3500 
L 2222 3500 
L 2222 3053 
L 1275 3053 
L 1275 0 
L 697 0 
L 697 3053 
L 147 3053 
L 147 3500 
L 697 3500 
L 697 3744 
Q 697 4328 969 4595 
Q 1241 4863 1831 4863 
L 2375 4863 
z
" transform="scale(0.015625)"/>
      <path id="DejaVuSans-64" d="M 2906 2969 
L 2906 4863 
L 3481 4863 
L 3481 0 
L 2906 0 
L 2906 525 
Q 2725 213 2448 61 
Q 2172 -91 1784 -91 
Q 1150 -91 751 415 
Q 353 922 353 1747 
Q 353 2572 751 3078 
Q 1150 3584 1784 3584 
Q 2172 3584 2448 3432 
Q 2725 3281 2906 2969 
z
M 947 1747 
Q 947 1113 1208 752 
Q 1469 391 1925 391 
Q 2381 391 2643 752 
Q 2906 1113 2906 1747 
Q 2906 2381 2643 2742 
Q 2381 3103 1925 3103 
Q 1469 3103 1208 2742 
Q 947 2381 947 1747 
z
" transform="scale(0.015625)"/>
      <path id="DejaVuSans-61" d="M 2194 1759 
Q 1497 1759 1228 1600 
Q 959 1441 959 1056 
Q 959 750 1161 570 
Q 1363 391 1709 391 
Q 2188 391 2477 730 
Q 2766 1069 2766 1631 
L 2766 1759 
L 2194 1759 
z
M 3341 1997 
L 3341 0 
L 2766 0 
L 2766 531 
Q 2569 213 2275 61 
Q 1981 -91 1556 -91 
Q 1019 -91 701 211 
Q 384 513 384 1019 
Q 384 1609 779 1909 
Q 1175 2209 1959 2209 
L 2766 2209 
L 2766 2266 
Q 2766 2663 2505 2880 
Q 2244 3097 1772 3097 
Q 1472 3097 1187 3025 
Q 903 2953 641 2809 
L 641 3341 
Q 956 3463 1253 3523 
Q 1550 3584 1831 3584 
Q 2591 3584 2966 3190 
Q 3341 2797 3341 1997 
z
" transform="scale(0.015625)"/>
      <path id="DejaVuSans-79" d="M 2059 -325 
Q 1816 -950 1584 -1140 
Q 1353 -1331 966 -1331 
L 506 -1331 
L 506 -850 
L 844 -850 
Q 1081 -850 1212 -737 
Q 1344 -625 1503 -206 
L 1606 56 
L 191 3500 
L 800 3500 
L 1894 763 
L 2988 3500 
L 3597 3500 
L 2059 -325 
z
" transform="scale(0.015625)"/>
     </defs>
     <use xlink:href="#DejaVuSans-48"/>
     <use xlink:href="#DejaVuSans-6f" x="75.195312"/>
     <use xlink:href="#DejaVuSans-75" x="136.376953"/>
     <use xlink:href="#DejaVuSans-72" x="199.755859"/>
     <use xlink:href="#DejaVuSans-20" x="240.869141"/>
     <use xlink:href="#DejaVuSans-6f" x="272.65625"/>
     <use xlink:href="#DejaVuSans-66" x="333.837891"/>
     <use xlink:href="#DejaVuSans-20" x="369.042969"/>
     <use xlink:href="#DejaVuSans-64" x="400.830078"/>
     <use xlink:href="#DejaVuSans-61" x="464.306641"/>
     <use xlink:href="#DejaVuSans-79" x="525.585938"/>
    </g>
   </g>
  </g>
  <g id="axes_2">
   <g id="patch_55">
    <path d="M 42.875 449.666667 
L 548.0625 449.666667 
L 548.0625 257.333333 
L 42.875 257.333333 
z
" style="fill: #ffffff"/>
   </g>
   <g id="patch_56">
    <path d="M 65.838068 449.666667 
L 92.853443 449.666667 
L 92.853443 296.713476 
L 65.838068 296.713476 
z
" clip-path="url(#p0a82cb688d)" style="fill: #2e8b57"/>
   </g>
   <g id="patch_57">
    <path d="M 133.376504 449.666667 
L 160.391878 449.666667 
L 160.391878 376.080504 
L 133.376504 376.080504 
z
" clip-path="url(#p0a82cb688d)" style="fill: #2e8b57"/>
   </g>
   <g id="patch_58">
    <path d="M 200.91494 449.666667 
L 227.930314 449.666667 
L 227.930314 422.0629 
L 200.91494 422.0629 
z
" clip-path="url(#p0a82cb688d)" style="fill: #2e8b57"/>
   </g>
   <g id="patch_59">
    <path d="M 268.453376 449.666667 
L 295.46875 449.666667 
L 295.46875 425.89293 
L 268.453376 425.89293 
z
" clip-path="url(#p0a82cb688d)" style="fill: #2e8b57"/>
   </g>
   <g id="patch_60">
    <path d="M 335.991811 449.666667 
L 363.007186 449.666667 
L 363.007186 350.466148 
L 335.991811 350.466148 
z
" clip-path="url(#p0a82cb688d)" style="fill: #2e8b57"/>
   </g>
   <g id="patch_61">
    <path d="M 403.530247 449.666667 
L 430.545622 449.666667 
L 430.545622 292.685056 
L 403.530247 292.685056 
z
" clip-path="url(#p0a82cb688d)" style="fill: #2e8b57"/>
   </g>
   <g id="patch_62">
    <path d="M 471.068683 449.666667 
L 498.084057 449.666667 
L 498.084057 266.492063 
L 471.068683 266.492063 
z
" clip-path="url(#p0a82cb688d)" style="fill: #2e8b57"/>
   </g>
   <g id="patch_63">
    <path d="M 92.853443 449.666667 
L 119.868817 449.666667 
L 119.868817 363.108001 
L 92.853443 363.108001 
z
" clip-path="url(#p0a82cb688d)" style="fill: #cd5c5c"/>
   </g>
   <g id="patch_64">
    <path d="M 160.391878 449.666667 
L 187.407253 449.666667 
L 187.407253 387.140747 
L 160.391878 387.140747 
z
" clip-path="url(#p0a82cb688d)" style="fill: #cd5c5c"/>
   </g>
   <g id="patch_65">
    <path d="M 227.930314 449.666667 
L 254.945689 449.666667 
L 254.945689 407.701668 
L 227.930314 407.701668 
z
" clip-path="url(#p0a82cb688d)" style="fill: #cd5c5c"/>
   </g>
   <g id="patch_66">
    <path d="M 295.46875 449.666667 
L 322.484124 449.666667 
L 322.484124 403.574053 
L 295.46875 403.574053 
z
" clip-path="url(#p0a82cb688d)" style="fill: #cd5c5c"/>
   </g>
   <g id="patch_67">
    <path d="M 363.007186 449.666667 
L 390.02256 449.666667 
L 390.02256 374.449297 
L 363.007186 374.449297 
z
" clip-path="url(#p0a82cb688d)" style="fill: #cd5c5c"/>
   </g>
   <g id="patch_68">
    <path d="M 430.545622 449.666667 
L 457.560996 449.666667 
L 457.560996 342.28256 
L 430.545622 342.28256 
z
" clip-path="url(#p0a82cb688d)" style="fill: #cd5c5c"/>
   </g>
   <g id="patch_69">
    <path d="M 498.084057 449.666667 
L 525.099432 449.666667 
L 525.099432 346.7794 
L 498.084057 346.7794 
z
" clip-path="url(#p0a82cb688d)" style="fill: #cd5c5c"/>
   </g>
   <g id="matplotlib.axis_3">
    <g id="xtick_7">
     <g id="line2d_12">
      <g>
       <use xlink:href="#m268e3e93c9" x="92.853443" y="449.666667" style="stroke: #000000; stroke-width: 0.8"/>
      </g>
     </g>
     <g id="text_13">
      <!-- Mon -->
      <g transform="translate(82.311255 464.265104)scale(0.1 -0.1)">
       <defs>
        <path id="DejaVuSans-4d" d="M 628 4666 
L 1569 4666 
L 2759 1491 
L 3956 4666 
L 4897 4666 
L 4897 0 
L 4281 0 
L 4281 4097 
L 3078 897 
L 2444 897 
L 1241 4097 
L 1241 0 
L 628 0 
L 628 4666 
z
" transform="scale(0.015625)"/>
        <path id="DejaVuSans-6e" d="M 3513 2113 
L 3513 0 
L 2938 0 
L 2938 2094 
Q 2938 2591 2744 2837 
Q 2550 3084 2163 3084 
Q 1697 3084 1428 2787 
Q 1159 2491 1159 1978 
L 1159 0 
L 581 0 
L 581 3500 
L 1159 3500 
L 1159 2956 
Q 1366 3272 1645 3428 
Q 1925 3584 2291 3584 
Q 2894 3584 3203 3211 
Q 3513 2838 3513 2113 
z
" transform="scale(0.015625)"/>
       </defs>
       <use xlink:href="#DejaVuSans-4d"/>
       <use xlink:href="#DejaVuSans-6f" x="86.279297"/>
       <use xlink:href="#DejaVuSans-6e" x="147.460938"/>
      </g>
     </g>
    </g>
    <g id="xtick_8">
     <g id="line2d_13">
      <g>
       <use xlink:href="#m268e3e93c9" x="160.391878" y="449.666667" style="stroke: #000000; stroke-width: 0.8"/>
      </g>
     </g>
     <g id="text_14">
      <!-- Tue -->
      <g transform="translate(151.84891 464.265104)scale(0.1 -0.1)">
       <defs>
        <path id="DejaVuSans-54" d="M -19 4666 
L 3928 4666 
L 3928 4134 
L 2272 4134 
L 2272 0 
L 1638 0 
L 1638 4134 
L -19 4134 
L -19 4666 
z
" transform="scale(0.015625)"/>
        <path id="DejaVuSans-65" d="M 3597 1894 
L 3597 1613 
L 953 1613 
Q 991 1019 1311 708 
Q 1631 397 2203 397 
Q 2534 397 2845 478 
Q 3156 559 3463 722 
L 3463 178 
Q 3153 47 2828 -22 
Q 2503 -91 2169 -91 
Q 1331 -91 842 396 
Q 353 884 353 1716 
Q 353 2575 817 3079 
Q 1281 3584 2069 3584 
Q 2775 3584 3186 3129 
Q 3597 2675 3597 1894 
z
M 3022 2063 
Q 3016 2534 2758 2815 
Q 2500 3097 2075 3097 
Q 1594 3097 1305 2825 
Q 1016 2553 972 2059 
L 3022 2063 
z
" transform="scale(0.015625)"/>
       </defs>
       <use xlink:href="#DejaVuSans-54"/>
       <use xlink:href="#DejaVuSans-75" x="45.958984"/>
       <use xlink:href="#DejaVuSans-65" x="109.337891"/>
      </g>
     </g>
    </g>
    <g id="xtick_9">
     <g id="line2d_14">
      <g>
       <use xlink:href="#m268e3e93c9" x="227.930314" y="449.666667" style="stroke: #000000; stroke-width: 0.8"/>
      </g>
     </g>
     <g id="text_15">
      <!-- Wen -->
      <g transform="translate(217.035002 464.265104)scale(0.1 -0.1)">
       <defs>
        <path id="DejaVuSans-57" d="M 213 4666 
L 850 4666 
L 1831 722 
L 2809 4666 
L 3519 4666 
L 4500 722 
L 5478 4666 
L 6119 4666 
L 4947 0 
L 4153 0 
L 3169 4050 
L 2175 0 
L 1381 0 
L 213 4666 
z
" transform="scale(0.015625)"/>
       </defs>
       <use xlink:href="#DejaVuSans-57"/>
       <use xlink:href="#DejaVuSans-65" x="93.001953"/>
       <use xlink:href="#DejaVuSans-6e" x="154.525391"/>
      </g>
     </g>
    </g>
    <g id="xtick_10">
     <g id="line2d_15">
      <g>
       <use xlink:href="#m268e3e93c9" x="295.46875" y="449.666667" style="stroke: #000000; stroke-width: 0.8"/>
      </g>
     </g>
     <g id="text_16">
      <!-- Thu -->
      <g transform="translate(286.077344 464.265104)scale(0.1 -0.1)">
       <defs>
        <path id="DejaVuSans-68" d="M 3513 2113 
L 3513 0 
L 2938 0 
L 2938 2094 
Q 2938 2591 2744 2837 
Q 2550 3084 2163 3084 
Q 1697 3084 1428 2787 
Q 1159 2491 1159 1978 
L 1159 0 
L 581 0 
L 581 4863 
L 1159 4863 
L 1159 2956 
Q 1366 3272 1645 3428 
Q 1925 3584 2291 3584 
Q 2894 3584 3203 3211 
Q 3513 2838 3513 2113 
z
" transform="scale(0.015625)"/>
       </defs>
       <use xlink:href="#DejaVuSans-54"/>
       <use xlink:href="#DejaVuSans-68" x="61.083984"/>
       <use xlink:href="#DejaVuSans-75" x="124.462891"/>
      </g>
     </g>
    </g>
    <g id="xtick_11">
     <g id="line2d_16">
      <g>
       <use xlink:href="#m268e3e93c9" x="363.007186" y="449.666667" style="stroke: #000000; stroke-width: 0.8"/>
      </g>
     </g>
     <g id="text_17">
      <!-- Fri -->
      <g transform="translate(357.049373 464.265104)scale(0.1 -0.1)">
       <defs>
        <path id="DejaVuSans-46" d="M 628 4666 
L 3309 4666 
L 3309 4134 
L 1259 4134 
L 1259 2759 
L 3109 2759 
L 3109 2228 
L 1259 2228 
L 1259 0 
L 628 0 
L 628 4666 
z
" transform="scale(0.015625)"/>
        <path id="DejaVuSans-69" d="M 603 3500 
L 1178 3500 
L 1178 0 
L 603 0 
L 603 3500 
z
M 603 4863 
L 1178 4863 
L 1178 4134 
L 603 4134 
L 603 4863 
z
" transform="scale(0.015625)"/>
       </defs>
       <use xlink:href="#DejaVuSans-46"/>
       <use xlink:href="#DejaVuSans-72" x="50.269531"/>
       <use xlink:href="#DejaVuSans-69" x="91.382812"/>
      </g>
     </g>
    </g>
    <g id="xtick_12">
     <g id="line2d_17">
      <g>
       <use xlink:href="#m268e3e93c9" x="430.545622" y="449.666667" style="stroke: #000000; stroke-width: 0.8"/>
      </g>
     </g>
     <g id="text_18">
      <!-- Sat -->
      <g transform="translate(422.347184 464.265104)scale(0.1 -0.1)">
       <defs>
        <path id="DejaVuSans-53" d="M 3425 4513 
L 3425 3897 
Q 3066 4069 2747 4153 
Q 2428 4238 2131 4238 
Q 1616 4238 1336 4038 
Q 1056 3838 1056 3469 
Q 1056 3159 1242 3001 
Q 1428 2844 1947 2747 
L 2328 2669 
Q 3034 2534 3370 2195 
Q 3706 1856 3706 1288 
Q 3706 609 3251 259 
Q 2797 -91 1919 -91 
Q 1588 -91 1214 -16 
Q 841 59 441 206 
L 441 856 
Q 825 641 1194 531 
Q 1563 422 1919 422 
Q 2459 422 2753 634 
Q 3047 847 3047 1241 
Q 3047 1584 2836 1778 
Q 2625 1972 2144 2069 
L 1759 2144 
Q 1053 2284 737 2584 
Q 422 2884 422 3419 
Q 422 4038 858 4394 
Q 1294 4750 2059 4750 
Q 2388 4750 2728 4690 
Q 3069 4631 3425 4513 
z
" transform="scale(0.015625)"/>
        <path id="DejaVuSans-74" d="M 1172 4494 
L 1172 3500 
L 2356 3500 
L 2356 3053 
L 1172 3053 
L 1172 1153 
Q 1172 725 1289 603 
Q 1406 481 1766 481 
L 2356 481 
L 2356 0 
L 1766 0 
Q 1100 0 847 248 
Q 594 497 594 1153 
L 594 3053 
L 172 3053 
L 172 3500 
L 594 3500 
L 594 4494 
L 1172 4494 
z
" transform="scale(0.015625)"/>
       </defs>
       <use xlink:href="#DejaVuSans-53"/>
       <use xlink:href="#DejaVuSans-61" x="63.476562"/>
       <use xlink:href="#DejaVuSans-74" x="124.755859"/>
      </g>
     </g>
    </g>
    <g id="xtick_13">
     <g id="line2d_18">
      <g>
       <use xlink:href="#m268e3e93c9" x="498.084057" y="449.666667" style="stroke: #000000; stroke-width: 0.8"/>
      </g>
     </g>
     <g id="text_19">
      <!-- Sun -->
      <g transform="translate(488.572339 464.265104)scale(0.1 -0.1)">
       <use xlink:href="#DejaVuSans-53"/>
       <use xlink:href="#DejaVuSans-75" x="63.476562"/>
       <use xlink:href="#DejaVuSans-6e" x="126.855469"/>
      </g>
     </g>
    </g>
   </g>
   <g id="matplotlib.axis_4">
    <g id="ytick_6">
     <g id="line2d_19">
      <g>
       <use xlink:href="#mca7bba73b9" x="42.875" y="449.666667" style="stroke: #000000; stroke-width: 0.8"/>
      </g>
     </g>
     <g id="text_20">
      <!-- 0 -->
      <g transform="translate(29.5125 453.465885)scale(0.1 -0.1)">
       <use xlink:href="#DejaVuSans-30"/>
      </g>
     </g>
    </g>
    <g id="ytick_7">
     <g id="line2d_20">
      <g>
       <use xlink:href="#mca7bba73b9" x="42.875" y="422.112498" style="stroke: #000000; stroke-width: 0.8"/>
      </g>
     </g>
     <g id="text_21">
      <!-- 5000 -->
      <g transform="translate(10.425 425.911717)scale(0.1 -0.1)">
       <defs>
        <path id="DejaVuSans-35" d="M 691 4666 
L 3169 4666 
L 3169 4134 
L 1269 4134 
L 1269 2991 
Q 1406 3038 1543 3061 
Q 1681 3084 1819 3084 
Q 2600 3084 3056 2656 
Q 3513 2228 3513 1497 
Q 3513 744 3044 326 
Q 2575 -91 1722 -91 
Q 1428 -91 1123 -41 
Q 819 9 494 109 
L 494 744 
Q 775 591 1075 516 
Q 1375 441 1709 441 
Q 2250 441 2565 725 
Q 2881 1009 2881 1497 
Q 2881 1984 2565 2268 
Q 2250 2553 1709 2553 
Q 1456 2553 1204 2497 
Q 953 2441 691 2322 
L 691 4666 
z
" transform="scale(0.015625)"/>
       </defs>
       <use xlink:href="#DejaVuSans-35"/>
       <use xlink:href="#DejaVuSans-30" x="63.623047"/>
       <use xlink:href="#DejaVuSans-30" x="127.246094"/>
       <use xlink:href="#DejaVuSans-30" x="190.869141"/>
      </g>
     </g>
    </g>
    <g id="ytick_8">
     <g id="line2d_21">
      <g>
       <use xlink:href="#mca7bba73b9" x="42.875" y="394.558329" style="stroke: #000000; stroke-width: 0.8"/>
      </g>
     </g>
     <g id="text_22">
      <!-- 10000 -->
      <g transform="translate(4.0625 398.357548)scale(0.1 -0.1)">
       <use xlink:href="#DejaVuSans-31"/>
       <use xlink:href="#DejaVuSans-30" x="63.623047"/>
       <use xlink:href="#DejaVuSans-30" x="127.246094"/>
       <use xlink:href="#DejaVuSans-30" x="190.869141"/>
       <use xlink:href="#DejaVuSans-30" x="254.492188"/>
      </g>
     </g>
    </g>
    <g id="ytick_9">
     <g id="line2d_22">
      <g>
       <use xlink:href="#mca7bba73b9" x="42.875" y="367.00416" style="stroke: #000000; stroke-width: 0.8"/>
      </g>
     </g>
     <g id="text_23">
      <!-- 15000 -->
      <g transform="translate(4.0625 370.803379)scale(0.1 -0.1)">
       <use xlink:href="#DejaVuSans-31"/>
       <use xlink:href="#DejaVuSans-35" x="63.623047"/>
       <use xlink:href="#DejaVuSans-30" x="127.246094"/>
       <use xlink:href="#DejaVuSans-30" x="190.869141"/>
       <use xlink:href="#DejaVuSans-30" x="254.492188"/>
      </g>
     </g>
    </g>
    <g id="ytick_10">
     <g id="line2d_23">
      <g>
       <use xlink:href="#mca7bba73b9" x="42.875" y="339.449992" style="stroke: #000000; stroke-width: 0.8"/>
      </g>
     </g>
     <g id="text_24">
      <!-- 20000 -->
      <g transform="translate(4.0625 343.24921)scale(0.1 -0.1)">
       <use xlink:href="#DejaVuSans-32"/>
       <use xlink:href="#DejaVuSans-30" x="63.623047"/>
       <use xlink:href="#DejaVuSans-30" x="127.246094"/>
       <use xlink:href="#DejaVuSans-30" x="190.869141"/>
       <use xlink:href="#DejaVuSans-30" x="254.492188"/>
      </g>
     </g>
    </g>
    <g id="ytick_11">
     <g id="line2d_24">
      <g>
       <use xlink:href="#mca7bba73b9" x="42.875" y="311.895823" style="stroke: #000000; stroke-width: 0.8"/>
      </g>
     </g>
     <g id="text_25">
      <!-- 25000 -->
      <g transform="translate(4.0625 315.695042)scale(0.1 -0.1)">
       <use xlink:href="#DejaVuSans-32"/>
       <use xlink:href="#DejaVuSans-35" x="63.623047"/>
       <use xlink:href="#DejaVuSans-30" x="127.246094"/>
       <use xlink:href="#DejaVuSans-30" x="190.869141"/>
       <use xlink:href="#DejaVuSans-30" x="254.492188"/>
      </g>
     </g>
    </g>
    <g id="ytick_12">
     <g id="line2d_25">
      <g>
       <use xlink:href="#mca7bba73b9" x="42.875" y="284.341654" style="stroke: #000000; stroke-width: 0.8"/>
      </g>
     </g>
     <g id="text_26">
      <!-- 30000 -->
      <g transform="translate(4.0625 288.140873)scale(0.1 -0.1)">
       <defs>
        <path id="DejaVuSans-33" d="M 2597 2516 
Q 3050 2419 3304 2112 
Q 3559 1806 3559 1356 
Q 3559 666 3084 287 
Q 2609 -91 1734 -91 
Q 1441 -91 1130 -33 
Q 819 25 488 141 
L 488 750 
Q 750 597 1062 519 
Q 1375 441 1716 441 
Q 2309 441 2620 675 
Q 2931 909 2931 1356 
Q 2931 1769 2642 2001 
Q 2353 2234 1838 2234 
L 1294 2234 
L 1294 2753 
L 1863 2753 
Q 2328 2753 2575 2939 
Q 2822 3125 2822 3475 
Q 2822 3834 2567 4026 
Q 2313 4219 1838 4219 
Q 1578 4219 1281 4162 
Q 984 4106 628 3988 
L 628 4550 
Q 988 4650 1302 4700 
Q 1616 4750 1894 4750 
Q 2613 4750 3031 4423 
Q 3450 4097 3450 3541 
Q 3450 3153 3228 2886 
Q 3006 2619 2597 2516 
z
" transform="scale(0.015625)"/>
       </defs>
       <use xlink:href="#DejaVuSans-33"/>
       <use xlink:href="#DejaVuSans-30" x="63.623047"/>
       <use xlink:href="#DejaVuSans-30" x="127.246094"/>
       <use xlink:href="#DejaVuSans-30" x="190.869141"/>
       <use xlink:href="#DejaVuSans-30" x="254.492188"/>
      </g>
     </g>
    </g>
   </g>
   <g id="patch_70">
    <path d="M 42.875 449.666667 
L 42.875 257.333333 
" style="fill: none; stroke: #000000; stroke-width: 0.8; stroke-linejoin: miter; stroke-linecap: square"/>
   </g>
   <g id="patch_71">
    <path d="M 548.0625 449.666667 
L 548.0625 257.333333 
" style="fill: none; stroke: #000000; stroke-width: 0.8; stroke-linejoin: miter; stroke-linecap: square"/>
   </g>
   <g id="patch_72">
    <path d="M 42.875 449.666667 
L 548.0625 449.666667 
" style="fill: none; stroke: #000000; stroke-width: 0.8; stroke-linejoin: miter; stroke-linecap: square"/>
   </g>
   <g id="patch_73">
    <path d="M 42.875 257.333333 
L 548.0625 257.333333 
" style="fill: none; stroke: #000000; stroke-width: 0.8; stroke-linejoin: miter; stroke-linecap: square"/>
   </g>
   <g id="text_27">
    <!-- Weekday -->
    <g transform="translate(267.993438 251.333333)scale(0.12 -0.12)">
     <defs>
      <path id="DejaVuSans-6b" d="M 581 4863 
L 1159 4863 
L 1159 1991 
L 2875 3500 
L 3609 3500 
L 1753 1863 
L 3688 0 
L 2938 0 
L 1159 1709 
L 1159 0 
L 581 0 
L 581 4863 
z
" transform="scale(0.015625)"/>
     </defs>
     <use xlink:href="#DejaVuSans-57"/>
     <use xlink:href="#DejaVuSans-65" x="93.001953"/>
     <use xlink:href="#DejaVuSans-65" x="154.525391"/>
     <use xlink:href="#DejaVuSans-6b" x="216.048828"/>
     <use xlink:href="#DejaVuSans-64" x="273.958984"/>
     <use xlink:href="#DejaVuSans-61" x="337.435547"/>
     <use xlink:href="#DejaVuSans-79" x="398.714844"/>
    </g>
   </g>
  </g>
  <g id="axes_3">
   <g id="patch_74">
    <path d="M 42.875 683 
L 548.0625 683 
L 548.0625 490.666667 
L 42.875 490.666667 
z
" style="fill: #ffffff"/>
   </g>
   <g id="patch_75">
    <path d="M 65.838068 683 
L 131.446834 683 
L 131.446834 660.974381 
L 65.838068 660.974381 
z
" clip-path="url(#p35ea18d4ab)" style="fill: #2e8b57"/>
   </g>
   <g id="patch_76">
    <path d="M 229.859984 683 
L 295.46875 683 
L 295.46875 510.693186 
L 229.859984 510.693186 
z
" clip-path="url(#p35ea18d4ab)" style="fill: #2e8b57"/>
   </g>
   <g id="patch_77">
    <path d="M 393.881899 683 
L 459.490666 683 
L 459.490666 499.825397 
L 393.881899 499.825397 
z
" clip-path="url(#p35ea18d4ab)" style="fill: #2e8b57"/>
   </g>
   <g id="patch_78">
    <path d="M 131.446834 683 
L 197.055601 683 
L 197.055601 671.056163 
L 131.446834 671.056163 
z
" clip-path="url(#p35ea18d4ab)" style="fill: #cd5c5c"/>
   </g>
   <g id="patch_79">
    <path d="M 295.46875 683 
L 361.077516 683 
L 361.077516 597.238147 
L 295.46875 597.238147 
z
" clip-path="url(#p35ea18d4ab)" style="fill: #cd5c5c"/>
   </g>
   <g id="patch_80">
    <path d="M 459.490666 683 
L 525.099432 683 
L 525.099432 505.640694 
L 459.490666 505.640694 
z
" clip-path="url(#p35ea18d4ab)" style="fill: #cd5c5c"/>
   </g>
   <g id="matplotlib.axis_5">
    <g id="xtick_14">
     <g id="line2d_26">
      <g>
       <use xlink:href="#m268e3e93c9" x="130.626725" y="683" style="stroke: #000000; stroke-width: 0.8"/>
      </g>
     </g>
     <g id="text_28">
      <!-- April -->
      <g transform="translate(119.1986 697.598438)scale(0.1 -0.1)">
       <defs>
        <path id="DejaVuSans-41" d="M 2188 4044 
L 1331 1722 
L 3047 1722 
L 2188 4044 
z
M 1831 4666 
L 2547 4666 
L 4325 0 
L 3669 0 
L 3244 1197 
L 1141 1197 
L 716 0 
L 50 0 
L 1831 4666 
z
" transform="scale(0.015625)"/>
        <path id="DejaVuSans-70" d="M 1159 525 
L 1159 -1331 
L 581 -1331 
L 581 3500 
L 1159 3500 
L 1159 2969 
Q 1341 3281 1617 3432 
Q 1894 3584 2278 3584 
Q 2916 3584 3314 3078 
Q 3713 2572 3713 1747 
Q 3713 922 3314 415 
Q 2916 -91 2278 -91 
Q 1894 -91 1617 61 
Q 1341 213 1159 525 
z
M 3116 1747 
Q 3116 2381 2855 2742 
Q 2594 3103 2138 3103 
Q 1681 3103 1420 2742 
Q 1159 2381 1159 1747 
Q 1159 1113 1420 752 
Q 1681 391 2138 391 
Q 2594 391 2855 752 
Q 3116 1113 3116 1747 
z
" transform="scale(0.015625)"/>
        <path id="DejaVuSans-6c" d="M 603 4863 
L 1178 4863 
L 1178 0 
L 603 0 
L 603 4863 
z
" transform="scale(0.015625)"/>
       </defs>
       <use xlink:href="#DejaVuSans-41"/>
       <use xlink:href="#DejaVuSans-70" x="68.408203"/>
       <use xlink:href="#DejaVuSans-72" x="131.884766"/>
       <use xlink:href="#DejaVuSans-69" x="172.998047"/>
       <use xlink:href="#DejaVuSans-6c" x="200.78125"/>
      </g>
     </g>
    </g>
    <g id="xtick_15">
     <g id="line2d_27">
      <g>
       <use xlink:href="#m268e3e93c9" x="295.46875" y="683" style="stroke: #000000; stroke-width: 0.8"/>
      </g>
     </g>
     <g id="text_29">
      <!-- May -->
      <g transform="translate(285.13125 697.598438)scale(0.1 -0.1)">
       <use xlink:href="#DejaVuSans-4d"/>
       <use xlink:href="#DejaVuSans-61" x="86.279297"/>
       <use xlink:href="#DejaVuSans-79" x="147.558594"/>
      </g>
     </g>
    </g>
    <g id="xtick_16">
     <g id="line2d_28">
      <g>
       <use xlink:href="#m268e3e93c9" x="457.850446" y="683" style="stroke: #000000; stroke-width: 0.8"/>
      </g>
     </g>
     <g id="text_30">
      <!-- June -->
      <g transform="translate(446.961384 697.598438)scale(0.1 -0.1)">
       <defs>
        <path id="DejaVuSans-4a" d="M 628 4666 
L 1259 4666 
L 1259 325 
Q 1259 -519 939 -900 
Q 619 -1281 -91 -1281 
L -331 -1281 
L -331 -750 
L -134 -750 
Q 284 -750 456 -515 
Q 628 -281 628 325 
L 628 4666 
z
" transform="scale(0.015625)"/>
       </defs>
       <use xlink:href="#DejaVuSans-4a"/>
       <use xlink:href="#DejaVuSans-75" x="29.492188"/>
       <use xlink:href="#DejaVuSans-6e" x="92.871094"/>
       <use xlink:href="#DejaVuSans-65" x="156.25"/>
      </g>
     </g>
    </g>
   </g>
   <g id="matplotlib.axis_6">
    <g id="ytick_13">
     <g id="line2d_29">
      <g>
       <use xlink:href="#mca7bba73b9" x="42.875" y="683" style="stroke: #000000; stroke-width: 0.8"/>
      </g>
     </g>
     <g id="text_31">
      <!-- 0 -->
      <g transform="translate(29.5125 686.799219)scale(0.1 -0.1)">
       <use xlink:href="#DejaVuSans-30"/>
      </g>
     </g>
    </g>
    <g id="ytick_14">
     <g id="line2d_30">
      <g>
       <use xlink:href="#mca7bba73b9" x="42.875" y="653.996025" style="stroke: #000000; stroke-width: 0.8"/>
      </g>
     </g>
     <g id="text_32">
      <!-- 10000 -->
      <g transform="translate(4.0625 657.795244)scale(0.1 -0.1)">
       <use xlink:href="#DejaVuSans-31"/>
       <use xlink:href="#DejaVuSans-30" x="63.623047"/>
       <use xlink:href="#DejaVuSans-30" x="127.246094"/>
       <use xlink:href="#DejaVuSans-30" x="190.869141"/>
       <use xlink:href="#DejaVuSans-30" x="254.492188"/>
      </g>
     </g>
    </g>
    <g id="ytick_15">
     <g id="line2d_31">
      <g>
       <use xlink:href="#mca7bba73b9" x="42.875" y="624.99205" style="stroke: #000000; stroke-width: 0.8"/>
      </g>
     </g>
     <g id="text_33">
      <!-- 20000 -->
      <g transform="translate(4.0625 628.791269)scale(0.1 -0.1)">
       <use xlink:href="#DejaVuSans-32"/>
       <use xlink:href="#DejaVuSans-30" x="63.623047"/>
       <use xlink:href="#DejaVuSans-30" x="127.246094"/>
       <use xlink:href="#DejaVuSans-30" x="190.869141"/>
       <use xlink:href="#DejaVuSans-30" x="254.492188"/>
      </g>
     </g>
    </g>
    <g id="ytick_16">
     <g id="line2d_32">
      <g>
       <use xlink:href="#mca7bba73b9" x="42.875" y="595.988075" style="stroke: #000000; stroke-width: 0.8"/>
      </g>
     </g>
     <g id="text_34">
      <!-- 30000 -->
      <g transform="translate(4.0625 599.787294)scale(0.1 -0.1)">
       <use xlink:href="#DejaVuSans-33"/>
       <use xlink:href="#DejaVuSans-30" x="63.623047"/>
       <use xlink:href="#DejaVuSans-30" x="127.246094"/>
       <use xlink:href="#DejaVuSans-30" x="190.869141"/>
       <use xlink:href="#DejaVuSans-30" x="254.492188"/>
      </g>
     </g>
    </g>
    <g id="ytick_17">
     <g id="line2d_33">
      <g>
       <use xlink:href="#mca7bba73b9" x="42.875" y="566.984101" style="stroke: #000000; stroke-width: 0.8"/>
      </g>
     </g>
     <g id="text_35">
      <!-- 40000 -->
      <g transform="translate(4.0625 570.783319)scale(0.1 -0.1)">
       <use xlink:href="#DejaVuSans-34"/>
       <use xlink:href="#DejaVuSans-30" x="63.623047"/>
       <use xlink:href="#DejaVuSans-30" x="127.246094"/>
       <use xlink:href="#DejaVuSans-30" x="190.869141"/>
       <use xlink:href="#DejaVuSans-30" x="254.492188"/>
      </g>
     </g>
    </g>
    <g id="ytick_18">
     <g id="line2d_34">
      <g>
       <use xlink:href="#mca7bba73b9" x="42.875" y="537.980126" style="stroke: #000000; stroke-width: 0.8"/>
      </g>
     </g>
     <g id="text_36">
      <!-- 50000 -->
      <g transform="translate(4.0625 541.779344)scale(0.1 -0.1)">
       <use xlink:href="#DejaVuSans-35"/>
       <use xlink:href="#DejaVuSans-30" x="63.623047"/>
       <use xlink:href="#DejaVuSans-30" x="127.246094"/>
       <use xlink:href="#DejaVuSans-30" x="190.869141"/>
       <use xlink:href="#DejaVuSans-30" x="254.492188"/>
      </g>
     </g>
    </g>
    <g id="ytick_19">
     <g id="line2d_35">
      <g>
       <use xlink:href="#mca7bba73b9" x="42.875" y="508.976151" style="stroke: #000000; stroke-width: 0.8"/>
      </g>
     </g>
     <g id="text_37">
      <!-- 60000 -->
      <g transform="translate(4.0625 512.77537)scale(0.1 -0.1)">
       <use xlink:href="#DejaVuSans-36"/>
       <use xlink:href="#DejaVuSans-30" x="63.623047"/>
       <use xlink:href="#DejaVuSans-30" x="127.246094"/>
       <use xlink:href="#DejaVuSans-30" x="190.869141"/>
       <use xlink:href="#DejaVuSans-30" x="254.492188"/>
      </g>
     </g>
    </g>
   </g>
   <g id="patch_81">
    <path d="M 42.875 683 
L 42.875 490.666667 
" style="fill: none; stroke: #000000; stroke-width: 0.8; stroke-linejoin: miter; stroke-linecap: square"/>
   </g>
   <g id="patch_82">
    <path d="M 548.0625 683 
L 548.0625 490.666667 
" style="fill: none; stroke: #000000; stroke-width: 0.8; stroke-linejoin: miter; stroke-linecap: square"/>
   </g>
   <g id="patch_83">
    <path d="M 42.875 683 
L 548.0625 683 
" style="fill: none; stroke: #000000; stroke-width: 0.8; stroke-linejoin: miter; stroke-linecap: square"/>
   </g>
   <g id="patch_84">
    <path d="M 42.875 490.666667 
L 548.0625 490.666667 
" style="fill: none; stroke: #000000; stroke-width: 0.8; stroke-linejoin: miter; stroke-linecap: square"/>
   </g>
   <g id="text_38">
    <!-- Month -->
    <g transform="translate(276.663438 484.666667)scale(0.12 -0.12)">
     <use xlink:href="#DejaVuSans-4d"/>
     <use xlink:href="#DejaVuSans-6f" x="86.279297"/>
     <use xlink:href="#DejaVuSans-6e" x="147.460938"/>
     <use xlink:href="#DejaVuSans-74" x="210.839844"/>
     <use xlink:href="#DejaVuSans-68" x="250.048828"/>
    </g>
   </g>
   <g id="legend_1">
    <g id="patch_85">
     <path d="M 49.875 528.022917 
L 125.6125 528.022917 
Q 127.6125 528.022917 127.6125 526.022917 
L 127.6125 497.666667 
Q 127.6125 495.666667 125.6125 495.666667 
L 49.875 495.666667 
Q 47.875 495.666667 47.875 497.666667 
L 47.875 526.022917 
Q 47.875 528.022917 49.875 528.022917 
z
" style="fill: #ffffff; opacity: 0.8; stroke: #cccccc; stroke-linejoin: miter"/>
    </g>
    <g id="patch_86">
     <path d="M 51.875 507.265104 
L 71.875 507.265104 
L 71.875 500.265104 
L 51.875 500.265104 
z
" style="fill: #2e8b57"/>
    </g>
    <g id="text_39">
     <!-- positive -->
     <g transform="translate(79.875 507.265104)scale(0.1 -0.1)">
      <defs>
       <path id="DejaVuSans-73" d="M 2834 3397 
L 2834 2853 
Q 2591 2978 2328 3040 
Q 2066 3103 1784 3103 
Q 1356 3103 1142 2972 
Q 928 2841 928 2578 
Q 928 2378 1081 2264 
Q 1234 2150 1697 2047 
L 1894 2003 
Q 2506 1872 2764 1633 
Q 3022 1394 3022 966 
Q 3022 478 2636 193 
Q 2250 -91 1575 -91 
Q 1294 -91 989 -36 
Q 684 19 347 128 
L 347 722 
Q 666 556 975 473 
Q 1284 391 1588 391 
Q 1994 391 2212 530 
Q 2431 669 2431 922 
Q 2431 1156 2273 1281 
Q 2116 1406 1581 1522 
L 1381 1569 
Q 847 1681 609 1914 
Q 372 2147 372 2553 
Q 372 3047 722 3315 
Q 1072 3584 1716 3584 
Q 2034 3584 2315 3537 
Q 2597 3491 2834 3397 
z
" transform="scale(0.015625)"/>
       <path id="DejaVuSans-76" d="M 191 3500 
L 800 3500 
L 1894 563 
L 2988 3500 
L 3597 3500 
L 2284 0 
L 1503 0 
L 191 3500 
z
" transform="scale(0.015625)"/>
      </defs>
      <use xlink:href="#DejaVuSans-70"/>
      <use xlink:href="#DejaVuSans-6f" x="63.476562"/>
      <use xlink:href="#DejaVuSans-73" x="124.658203"/>
      <use xlink:href="#DejaVuSans-69" x="176.757812"/>
      <use xlink:href="#DejaVuSans-74" x="204.541016"/>
      <use xlink:href="#DejaVuSans-69" x="243.75"/>
      <use xlink:href="#DejaVuSans-76" x="271.533203"/>
      <use xlink:href="#DejaVuSans-65" x="330.712891"/>
     </g>
    </g>
    <g id="patch_87">
     <path d="M 51.875 521.943229 
L 71.875 521.943229 
L 71.875 514.943229 
L 51.875 514.943229 
z
" style="fill: #cd5c5c"/>
    </g>
    <g id="text_40">
     <!-- negative -->
     <g transform="translate(79.875 521.943229)scale(0.1 -0.1)">
      <defs>
       <path id="DejaVuSans-67" d="M 2906 1791 
Q 2906 2416 2648 2759 
Q 2391 3103 1925 3103 
Q 1463 3103 1205 2759 
Q 947 2416 947 1791 
Q 947 1169 1205 825 
Q 1463 481 1925 481 
Q 2391 481 2648 825 
Q 2906 1169 2906 1791 
z
M 3481 434 
Q 3481 -459 3084 -895 
Q 2688 -1331 1869 -1331 
Q 1566 -1331 1297 -1286 
Q 1028 -1241 775 -1147 
L 775 -588 
Q 1028 -725 1275 -790 
Q 1522 -856 1778 -856 
Q 2344 -856 2625 -561 
Q 2906 -266 2906 331 
L 2906 616 
Q 2728 306 2450 153 
Q 2172 0 1784 0 
Q 1141 0 747 490 
Q 353 981 353 1791 
Q 353 2603 747 3093 
Q 1141 3584 1784 3584 
Q 2172 3584 2450 3431 
Q 2728 3278 2906 2969 
L 2906 3500 
L 3481 3500 
L 3481 434 
z
" transform="scale(0.015625)"/>
      </defs>
      <use xlink:href="#DejaVuSans-6e"/>
      <use xlink:href="#DejaVuSans-65" x="63.378906"/>
      <use xlink:href="#DejaVuSans-67" x="124.902344"/>
      <use xlink:href="#DejaVuSans-61" x="188.378906"/>
      <use xlink:href="#DejaVuSans-74" x="249.658203"/>
      <use xlink:href="#DejaVuSans-69" x="288.867188"/>
      <use xlink:href="#DejaVuSans-76" x="316.650391"/>
      <use xlink:href="#DejaVuSans-65" x="375.830078"/>
     </g>
    </g>
   </g>
  </g>
 </g>
 <defs>
  <clipPath id="p22d689bc02">
   <rect x="42.875" y="24" width="505.1875" height="192.333333"/>
  </clipPath>
  <clipPath id="p0a82cb688d">
   <rect x="42.875" y="257.333333" width="505.1875" height="192.333333"/>
  </clipPath>
  <clipPath id="p35ea18d4ab">
   <rect x="42.875" y="490.666667" width="505.1875" height="192.333333"/>
  </clipPath>
 </defs>
</svg>
