<?xml version="1.0" encoding="utf-8" standalone="no"?>
<!DOCTYPE svg PUBLIC "-//W3C//DTD SVG 1.1//EN"
  "http://www.w3.org/Graphics/SVG/1.1/DTD/svg11.dtd">
<svg xmlns:xlink="http://www.w3.org/1999/xlink" width="432pt" height="288pt" viewBox="0 0 432 288" xmlns="http://www.w3.org/2000/svg" version="1.1">
 <metadata>
  <rdf:RDF xmlns:dc="http://purl.org/dc/elements/1.1/" xmlns:cc="http://creativecommons.org/ns#" xmlns:rdf="http://www.w3.org/1999/02/22-rdf-syntax-ns#">
   <cc:Work>
    <dc:type rdf:resource="http://purl.org/dc/dcmitype/StillImage"/>
    <dc:date>2022-01-10T00:10:24.969078</dc:date>
    <dc:format>image/svg+xml</dc:format>
    <dc:creator>
     <cc:Agent>
      <dc:title>Matplotlib v3.5.1, https://matplotlib.org/</dc:title>
     </cc:Agent>
    </dc:creator>
   </cc:Work>
  </rdf:RDF>
 </metadata>
 <defs>
  <style type="text/css">*{stroke-linejoin: round; stroke-linecap: butt}</style>
 </defs>
 <g id="figure_1">
  <g id="patch_1">
   <path d="M 0 288 
L 432 288 
L 432 0 
L 0 0 
L 0 288 
z
" style="fill: none"/>
  </g>
  <g id="axes_1">
   <g id="patch_2">
    <path d="M 49.25 117 
L 404.0625 117 
L 404.0625 24 
L 49.25 24 
z
" style="fill: #ffffff"/>
   </g>
   <g id="patch_3">
    <path d="M 65.377841 117 
L 70.798964 117 
L 70.798964 31.204916 
L 65.377841 31.204916 
z
" clip-path="url(#pd639727208)" style="fill: #008000"/>
   </g>
   <g id="patch_4">
    <path d="M 78.930648 117 
L 84.351771 117 
L 84.351771 28.428571 
L 78.930648 28.428571 
z
" clip-path="url(#pd639727208)" style="fill: #008000"/>
   </g>
   <g id="patch_5">
    <path d="M 92.483456 117 
L 97.904579 117 
L 97.904579 32.4422 
L 92.483456 32.4422 
z
" clip-path="url(#pd639727208)" style="fill: #008000"/>
   </g>
   <g id="patch_6">
    <path d="M 106.036263 117 
L 111.457386 117 
L 111.457386 33.055812 
L 106.036263 33.055812 
z
" clip-path="url(#pd639727208)" style="fill: #008000"/>
   </g>
   <g id="patch_7">
    <path d="M 119.589071 117 
L 125.010194 117 
L 125.010194 39.986615 
L 119.589071 39.986615 
z
" clip-path="url(#pd639727208)" style="fill: #008000"/>
   </g>
   <g id="patch_8">
    <path d="M 133.141878 117 
L 138.563001 117 
L 138.563001 46.132798 
L 133.141878 46.132798 
z
" clip-path="url(#pd639727208)" style="fill: #008000"/>
   </g>
   <g id="patch_9">
    <path d="M 146.694686 117 
L 152.115809 117 
L 152.115809 54.200292 
L 146.694686 54.200292 
z
" clip-path="url(#pd639727208)" style="fill: #008000"/>
   </g>
   <g id="patch_10">
    <path d="M 160.247493 117 
L 165.668616 117 
L 165.668616 55.970715 
L 160.247493 55.970715 
z
" clip-path="url(#pd639727208)" style="fill: #008000"/>
   </g>
   <g id="patch_11">
    <path d="M 173.800301 117 
L 179.221424 117 
L 179.221424 65.526973 
L 173.800301 65.526973 
z
" clip-path="url(#pd639727208)" style="fill: #008000"/>
   </g>
   <g id="patch_12">
    <path d="M 187.353108 117 
L 192.774231 117 
L 192.774231 71.984992 
L 187.353108 71.984992 
z
" clip-path="url(#pd639727208)" style="fill: #008000"/>
   </g>
   <g id="patch_13">
    <path d="M 200.905916 117 
L 206.327039 117 
L 206.327039 74.912225 
L 200.905916 74.912225 
z
" clip-path="url(#pd639727208)" style="fill: #008000"/>
   </g>
   <g id="patch_14">
    <path d="M 214.458723 117 
L 219.879846 117 
L 219.879846 73.031151 
L 214.458723 73.031151 
z
" clip-path="url(#pd639727208)" style="fill: #008000"/>
   </g>
   <g id="patch_15">
    <path d="M 228.011531 117 
L 233.432654 117 
L 233.432654 80.957816 
L 228.011531 80.957816 
z
" clip-path="url(#pd639727208)" style="fill: #008000"/>
   </g>
   <g id="patch_16">
    <path d="M 241.564338 117 
L 246.985461 117 
L 246.985461 81.088586 
L 241.564338 81.088586 
z
" clip-path="url(#pd639727208)" style="fill: #008000"/>
   </g>
   <g id="patch_17">
    <path d="M 255.117146 117 
L 260.538269 117 
L 260.538269 79.479111 
L 255.117146 79.479111 
z
" clip-path="url(#pd639727208)" style="fill: #008000"/>
   </g>
   <g id="patch_18">
    <path d="M 268.669953 117 
L 274.091076 117 
L 274.091076 81.138882 
L 268.669953 81.138882 
z
" clip-path="url(#pd639727208)" style="fill: #008000"/>
   </g>
   <g id="patch_19">
    <path d="M 282.222761 117 
L 287.643884 117 
L 287.643884 79.418756 
L 282.222761 79.418756 
z
" clip-path="url(#pd639727208)" style="fill: #008000"/>
   </g>
   <g id="patch_20">
    <path d="M 295.775568 117 
L 301.196691 117 
L 301.196691 85.403991 
L 295.775568 85.403991 
z
" clip-path="url(#pd639727208)" style="fill: #008000"/>
   </g>
   <g id="patch_21">
    <path d="M 309.328376 117 
L 314.749499 117 
L 314.749499 84.227063 
L 309.328376 84.227063 
z
" clip-path="url(#pd639727208)" style="fill: #008000"/>
   </g>
   <g id="patch_22">
    <path d="M 322.881183 117 
L 328.302306 117 
L 328.302306 80.143019 
L 322.881183 80.143019 
z
" clip-path="url(#pd639727208)" style="fill: #008000"/>
   </g>
   <g id="patch_23">
    <path d="M 336.433991 117 
L 341.855114 117 
L 341.855114 79.147157 
L 336.433991 79.147157 
z
" clip-path="url(#pd639727208)" style="fill: #008000"/>
   </g>
   <g id="patch_24">
    <path d="M 349.986798 117 
L 355.407921 117 
L 355.407921 68.413969 
L 349.986798 68.413969 
z
" clip-path="url(#pd639727208)" style="fill: #008000"/>
   </g>
   <g id="patch_25">
    <path d="M 363.539606 117 
L 368.960729 117 
L 368.960729 54.572483 
L 363.539606 54.572483 
z
" clip-path="url(#pd639727208)" style="fill: #008000"/>
   </g>
   <g id="patch_26">
    <path d="M 377.092413 117 
L 382.513536 117 
L 382.513536 37.85406 
L 377.092413 37.85406 
z
" clip-path="url(#pd639727208)" style="fill: #008000"/>
   </g>
   <g id="patch_27">
    <path d="M 70.798964 117 
L 76.220087 117 
L 76.220087 67.689706 
L 70.798964 67.689706 
z
" clip-path="url(#pd639727208)" style="fill: #ff0000"/>
   </g>
   <g id="patch_28">
    <path d="M 84.351771 117 
L 89.772894 117 
L 89.772894 73.332928 
L 84.351771 73.332928 
z
" clip-path="url(#pd639727208)" style="fill: #ff0000"/>
   </g>
   <g id="patch_29">
    <path d="M 97.904579 117 
L 103.325702 117 
L 103.325702 71.341202 
L 97.904579 71.341202 
z
" clip-path="url(#pd639727208)" style="fill: #ff0000"/>
   </g>
   <g id="patch_30">
    <path d="M 111.457386 117 
L 116.878509 117 
L 116.878509 70.174333 
L 111.457386 70.174333 
z
" clip-path="url(#pd639727208)" style="fill: #ff0000"/>
   </g>
   <g id="patch_31">
    <path d="M 125.010194 117 
L 130.431317 117 
L 130.431317 69.500365 
L 125.010194 69.500365 
z
" clip-path="url(#pd639727208)" style="fill: #ff0000"/>
   </g>
   <g id="patch_32">
    <path d="M 138.563001 117 
L 143.984124 117 
L 143.984124 70.375517 
L 138.563001 70.375517 
z
" clip-path="url(#pd639727208)" style="fill: #ff0000"/>
   </g>
   <g id="patch_33">
    <path d="M 152.115809 117 
L 157.536932 117 
L 157.536932 71.803926 
L 152.115809 71.803926 
z
" clip-path="url(#pd639727208)" style="fill: #ff0000"/>
   </g>
   <g id="patch_34">
    <path d="M 165.668616 117 
L 171.089739 117 
L 171.089739 72.035288 
L 165.668616 72.035288 
z
" clip-path="url(#pd639727208)" style="fill: #ff0000"/>
   </g>
   <g id="patch_35">
    <path d="M 179.221424 117 
L 184.642547 117 
L 184.642547 74.016955 
L 179.221424 74.016955 
z
" clip-path="url(#pd639727208)" style="fill: #ff0000"/>
   </g>
   <g id="patch_36">
    <path d="M 192.774231 117 
L 198.195354 117 
L 198.195354 78.624077 
L 192.774231 78.624077 
z
" clip-path="url(#pd639727208)" style="fill: #ff0000"/>
   </g>
   <g id="patch_37">
    <path d="M 206.327039 117 
L 211.748162 117 
L 211.748162 82.647765 
L 206.327039 82.647765 
z
" clip-path="url(#pd639727208)" style="fill: #ff0000"/>
   </g>
   <g id="patch_38">
    <path d="M 219.879846 117 
L 225.300969 117 
L 225.300969 81.501014 
L 219.879846 81.501014 
z
" clip-path="url(#pd639727208)" style="fill: #ff0000"/>
   </g>
   <g id="patch_39">
    <path d="M 233.432654 117 
L 238.853777 117 
L 238.853777 83.915227 
L 233.432654 83.915227 
z
" clip-path="url(#pd639727208)" style="fill: #ff0000"/>
   </g>
   <g id="patch_40">
    <path d="M 246.985461 117 
L 252.406584 117 
L 252.406584 85.001622 
L 246.985461 85.001622 
z
" clip-path="url(#pd639727208)" style="fill: #ff0000"/>
   </g>
   <g id="patch_41">
    <path d="M 260.538269 117 
L 265.959392 117 
L 265.959392 84.669668 
L 260.538269 84.669668 
z
" clip-path="url(#pd639727208)" style="fill: #ff0000"/>
   </g>
   <g id="patch_42">
    <path d="M 274.091076 117 
L 279.512199 117 
L 279.512199 82.728239 
L 274.091076 82.728239 
z
" clip-path="url(#pd639727208)" style="fill: #ff0000"/>
   </g>
   <g id="patch_43">
    <path d="M 287.643884 117 
L 293.065007 117 
L 293.065007 81.29983 
L 287.643884 81.29983 
z
" clip-path="url(#pd639727208)" style="fill: #ff0000"/>
   </g>
   <g id="patch_44">
    <path d="M 301.196691 117 
L 306.617814 117 
L 306.617814 85.524702 
L 301.196691 85.524702 
z
" clip-path="url(#pd639727208)" style="fill: #ff0000"/>
   </g>
   <g id="patch_45">
    <path d="M 314.749499 117 
L 320.170622 117 
L 320.170622 86.19867 
L 314.749499 86.19867 
z
" clip-path="url(#pd639727208)" style="fill: #ff0000"/>
   </g>
   <g id="patch_46">
    <path d="M 328.302306 117 
L 333.723429 117 
L 333.723429 84.066115 
L 328.302306 84.066115 
z
" clip-path="url(#pd639727208)" style="fill: #ff0000"/>
   </g>
   <g id="patch_47">
    <path d="M 341.855114 117 
L 347.276237 117 
L 347.276237 85.253103 
L 341.855114 85.253103 
z
" clip-path="url(#pd639727208)" style="fill: #ff0000"/>
   </g>
   <g id="patch_48">
    <path d="M 355.407921 117 
L 360.829044 117 
L 360.829044 76.471404 
L 355.407921 76.471404 
z
" clip-path="url(#pd639727208)" style="fill: #ff0000"/>
   </g>
   <g id="patch_49">
    <path d="M 368.960729 117 
L 374.381852 117 
L 374.381852 70.33528 
L 368.960729 70.33528 
z
" clip-path="url(#pd639727208)" style="fill: #ff0000"/>
   </g>
   <g id="patch_50">
    <path d="M 382.513536 117 
L 387.934659 117 
L 387.934659 65.506855 
L 382.513536 65.506855 
z
" clip-path="url(#pd639727208)" style="fill: #ff0000"/>
   </g>
   <g id="matplotlib.axis_1">
    <g id="xtick_1">
     <g id="line2d_1">
      <defs>
       <path id="me87b6feb11" d="M 0 0 
L 0 3.5 
" style="stroke: #000000; stroke-width: 0.8"/>
      </defs>
      <g>
       <use xlink:href="#me87b6feb11" x="70.798964" y="117" style="stroke: #000000; stroke-width: 0.8"/>
      </g>
     </g>
     <g id="text_1">
      <!-- 0 -->
      <g transform="translate(67.617714 131.598437)scale(0.1 -0.1)">
       <defs>
        <path id="DejaVuSans-30" d="M 2034 4250 
Q 1547 4250 1301 3770 
Q 1056 3291 1056 2328 
Q 1056 1369 1301 889 
Q 1547 409 2034 409 
Q 2525 409 2770 889 
Q 3016 1369 3016 2328 
Q 3016 3291 2770 3770 
Q 2525 4250 2034 4250 
z
M 2034 4750 
Q 2819 4750 3233 4129 
Q 3647 3509 3647 2328 
Q 3647 1150 3233 529 
Q 2819 -91 2034 -91 
Q 1250 -91 836 529 
Q 422 1150 422 2328 
Q 422 3509 836 4129 
Q 1250 4750 2034 4750 
z
" transform="scale(0.015625)"/>
       </defs>
       <use xlink:href="#DejaVuSans-30"/>
      </g>
     </g>
    </g>
    <g id="xtick_2">
     <g id="line2d_2">
      <g>
       <use xlink:href="#me87b6feb11" x="125.010194" y="117" style="stroke: #000000; stroke-width: 0.8"/>
      </g>
     </g>
     <g id="text_2">
      <!-- 4 -->
      <g transform="translate(121.828944 131.598437)scale(0.1 -0.1)">
       <defs>
        <path id="DejaVuSans-34" d="M 2419 4116 
L 825 1625 
L 2419 1625 
L 2419 4116 
z
M 2253 4666 
L 3047 4666 
L 3047 1625 
L 3713 1625 
L 3713 1100 
L 3047 1100 
L 3047 0 
L 2419 0 
L 2419 1100 
L 313 1100 
L 313 1709 
L 2253 4666 
z
" transform="scale(0.015625)"/>
       </defs>
       <use xlink:href="#DejaVuSans-34"/>
      </g>
     </g>
    </g>
    <g id="xtick_3">
     <g id="line2d_3">
      <g>
       <use xlink:href="#me87b6feb11" x="179.221424" y="117" style="stroke: #000000; stroke-width: 0.8"/>
      </g>
     </g>
     <g id="text_3">
      <!-- 8 -->
      <g transform="translate(176.040174 131.598437)scale(0.1 -0.1)">
       <defs>
        <path id="DejaVuSans-38" d="M 2034 2216 
Q 1584 2216 1326 1975 
Q 1069 1734 1069 1313 
Q 1069 891 1326 650 
Q 1584 409 2034 409 
Q 2484 409 2743 651 
Q 3003 894 3003 1313 
Q 3003 1734 2745 1975 
Q 2488 2216 2034 2216 
z
M 1403 2484 
Q 997 2584 770 2862 
Q 544 3141 544 3541 
Q 544 4100 942 4425 
Q 1341 4750 2034 4750 
Q 2731 4750 3128 4425 
Q 3525 4100 3525 3541 
Q 3525 3141 3298 2862 
Q 3072 2584 2669 2484 
Q 3125 2378 3379 2068 
Q 3634 1759 3634 1313 
Q 3634 634 3220 271 
Q 2806 -91 2034 -91 
Q 1263 -91 848 271 
Q 434 634 434 1313 
Q 434 1759 690 2068 
Q 947 2378 1403 2484 
z
M 1172 3481 
Q 1172 3119 1398 2916 
Q 1625 2713 2034 2713 
Q 2441 2713 2670 2916 
Q 2900 3119 2900 3481 
Q 2900 3844 2670 4047 
Q 2441 4250 2034 4250 
Q 1625 4250 1398 4047 
Q 1172 3844 1172 3481 
z
" transform="scale(0.015625)"/>
       </defs>
       <use xlink:href="#DejaVuSans-38"/>
      </g>
     </g>
    </g>
    <g id="xtick_4">
     <g id="line2d_4">
      <g>
       <use xlink:href="#me87b6feb11" x="233.432654" y="117" style="stroke: #000000; stroke-width: 0.8"/>
      </g>
     </g>
     <g id="text_4">
      <!-- 12 -->
      <g transform="translate(227.070154 131.598437)scale(0.1 -0.1)">
       <defs>
        <path id="DejaVuSans-31" d="M 794 531 
L 1825 531 
L 1825 4091 
L 703 3866 
L 703 4441 
L 1819 4666 
L 2450 4666 
L 2450 531 
L 3481 531 
L 3481 0 
L 794 0 
L 794 531 
z
" transform="scale(0.015625)"/>
        <path id="DejaVuSans-32" d="M 1228 531 
L 3431 531 
L 3431 0 
L 469 0 
L 469 531 
Q 828 903 1448 1529 
Q 2069 2156 2228 2338 
Q 2531 2678 2651 2914 
Q 2772 3150 2772 3378 
Q 2772 3750 2511 3984 
Q 2250 4219 1831 4219 
Q 1534 4219 1204 4116 
Q 875 4013 500 3803 
L 500 4441 
Q 881 4594 1212 4672 
Q 1544 4750 1819 4750 
Q 2544 4750 2975 4387 
Q 3406 4025 3406 3419 
Q 3406 3131 3298 2873 
Q 3191 2616 2906 2266 
Q 2828 2175 2409 1742 
Q 1991 1309 1228 531 
z
" transform="scale(0.015625)"/>
       </defs>
       <use xlink:href="#DejaVuSans-31"/>
       <use xlink:href="#DejaVuSans-32" x="63.623047"/>
      </g>
     </g>
    </g>
    <g id="xtick_5">
     <g id="line2d_5">
      <g>
       <use xlink:href="#me87b6feb11" x="287.643884" y="117" style="stroke: #000000; stroke-width: 0.8"/>
      </g>
     </g>
     <g id="text_5">
      <!-- 16 -->
      <g transform="translate(281.281384 131.598437)scale(0.1 -0.1)">
       <defs>
        <path id="DejaVuSans-36" d="M 2113 2584 
Q 1688 2584 1439 2293 
Q 1191 2003 1191 1497 
Q 1191 994 1439 701 
Q 1688 409 2113 409 
Q 2538 409 2786 701 
Q 3034 994 3034 1497 
Q 3034 2003 2786 2293 
Q 2538 2584 2113 2584 
z
M 3366 4563 
L 3366 3988 
Q 3128 4100 2886 4159 
Q 2644 4219 2406 4219 
Q 1781 4219 1451 3797 
Q 1122 3375 1075 2522 
Q 1259 2794 1537 2939 
Q 1816 3084 2150 3084 
Q 2853 3084 3261 2657 
Q 3669 2231 3669 1497 
Q 3669 778 3244 343 
Q 2819 -91 2113 -91 
Q 1303 -91 875 529 
Q 447 1150 447 2328 
Q 447 3434 972 4092 
Q 1497 4750 2381 4750 
Q 2619 4750 2861 4703 
Q 3103 4656 3366 4563 
z
" transform="scale(0.015625)"/>
       </defs>
       <use xlink:href="#DejaVuSans-31"/>
       <use xlink:href="#DejaVuSans-36" x="63.623047"/>
      </g>
     </g>
    </g>
    <g id="xtick_6">
     <g id="line2d_6">
      <g>
       <use xlink:href="#me87b6feb11" x="341.855114" y="117" style="stroke: #000000; stroke-width: 0.8"/>
      </g>
     </g>
     <g id="text_6">
      <!-- 20 -->
      <g transform="translate(335.492614 131.598437)scale(0.1 -0.1)">
       <use xlink:href="#DejaVuSans-32"/>
       <use xlink:href="#DejaVuSans-30" x="63.623047"/>
      </g>
     </g>
    </g>
   </g>
   <g id="matplotlib.axis_2">
    <g id="ytick_1">
     <g id="line2d_7">
      <defs>
       <path id="m7b25b2cbe2" d="M 0 0 
L -3.5 0 
" style="stroke: #000000; stroke-width: 0.8"/>
      </defs>
      <g>
       <use xlink:href="#m7b25b2cbe2" x="49.25" y="117" style="stroke: #000000; stroke-width: 0.8"/>
      </g>
     </g>
     <g id="text_7">
      <!-- 0 -->
      <g transform="translate(35.8875 120.799219)scale(0.1 -0.1)">
       <use xlink:href="#DejaVuSans-30"/>
      </g>
     </g>
    </g>
    <g id="ytick_2">
     <g id="line2d_8">
      <g>
       <use xlink:href="#m7b25b2cbe2" x="49.25" y="91.851951" style="stroke: #000000; stroke-width: 0.8"/>
      </g>
     </g>
     <g id="text_8">
      <!-- 2500 -->
      <g transform="translate(16.8 95.65117)scale(0.1 -0.1)">
       <defs>
        <path id="DejaVuSans-35" d="M 691 4666 
L 3169 4666 
L 3169 4134 
L 1269 4134 
L 1269 2991 
Q 1406 3038 1543 3061 
Q 1681 3084 1819 3084 
Q 2600 3084 3056 2656 
Q 3513 2228 3513 1497 
Q 3513 744 3044 326 
Q 2575 -91 1722 -91 
Q 1428 -91 1123 -41 
Q 819 9 494 109 
L 494 744 
Q 775 591 1075 516 
Q 1375 441 1709 441 
Q 2250 441 2565 725 
Q 2881 1009 2881 1497 
Q 2881 1984 2565 2268 
Q 2250 2553 1709 2553 
Q 1456 2553 1204 2497 
Q 953 2441 691 2322 
L 691 4666 
z
" transform="scale(0.015625)"/>
       </defs>
       <use xlink:href="#DejaVuSans-32"/>
       <use xlink:href="#DejaVuSans-35" x="63.623047"/>
       <use xlink:href="#DejaVuSans-30" x="127.246094"/>
       <use xlink:href="#DejaVuSans-30" x="190.869141"/>
      </g>
     </g>
    </g>
    <g id="ytick_3">
     <g id="line2d_9">
      <g>
       <use xlink:href="#m7b25b2cbe2" x="49.25" y="66.703902" style="stroke: #000000; stroke-width: 0.8"/>
      </g>
     </g>
     <g id="text_9">
      <!-- 5000 -->
      <g transform="translate(16.8 70.503121)scale(0.1 -0.1)">
       <use xlink:href="#DejaVuSans-35"/>
       <use xlink:href="#DejaVuSans-30" x="63.623047"/>
       <use xlink:href="#DejaVuSans-30" x="127.246094"/>
       <use xlink:href="#DejaVuSans-30" x="190.869141"/>
      </g>
     </g>
    </g>
    <g id="ytick_4">
     <g id="line2d_10">
      <g>
       <use xlink:href="#m7b25b2cbe2" x="49.25" y="41.555853" style="stroke: #000000; stroke-width: 0.8"/>
      </g>
     </g>
     <g id="text_10">
      <!-- 7500 -->
      <g transform="translate(16.8 45.355072)scale(0.1 -0.1)">
       <defs>
        <path id="DejaVuSans-37" d="M 525 4666 
L 3525 4666 
L 3525 4397 
L 1831 0 
L 1172 0 
L 2766 4134 
L 525 4134 
L 525 4666 
z
" transform="scale(0.015625)"/>
       </defs>
       <use xlink:href="#DejaVuSans-37"/>
       <use xlink:href="#DejaVuSans-35" x="63.623047"/>
       <use xlink:href="#DejaVuSans-30" x="127.246094"/>
       <use xlink:href="#DejaVuSans-30" x="190.869141"/>
      </g>
     </g>
    </g>
   </g>
   <g id="patch_51">
    <path d="M 49.25 117 
L 49.25 24 
" style="fill: none; stroke: #000000; stroke-width: 0.8; stroke-linejoin: miter; stroke-linecap: square"/>
   </g>
   <g id="patch_52">
    <path d="M 404.0625 117 
L 404.0625 24 
" style="fill: none; stroke: #000000; stroke-width: 0.8; stroke-linejoin: miter; stroke-linecap: square"/>
   </g>
   <g id="patch_53">
    <path d="M 49.25 117 
L 404.0625 117 
" style="fill: none; stroke: #000000; stroke-width: 0.8; stroke-linejoin: miter; stroke-linecap: square"/>
   </g>
   <g id="patch_54">
    <path d="M 49.25 24 
L 404.0625 24 
" style="fill: none; stroke: #000000; stroke-width: 0.8; stroke-linejoin: miter; stroke-linecap: square"/>
   </g>
   <g id="text_11">
    <!-- Hour of day -->
    <g transform="translate(191.569375 18)scale(0.12 -0.12)">
     <defs>
      <path id="DejaVuSans-48" d="M 628 4666 
L 1259 4666 
L 1259 2753 
L 3553 2753 
L 3553 4666 
L 4184 4666 
L 4184 0 
L 3553 0 
L 3553 2222 
L 1259 2222 
L 1259 0 
L 628 0 
L 628 4666 
z
" transform="scale(0.015625)"/>
      <path id="DejaVuSans-6f" d="M 1959 3097 
Q 1497 3097 1228 2736 
Q 959 2375 959 1747 
Q 959 1119 1226 758 
Q 1494 397 1959 397 
Q 2419 397 2687 759 
Q 2956 1122 2956 1747 
Q 2956 2369 2687 2733 
Q 2419 3097 1959 3097 
z
M 1959 3584 
Q 2709 3584 3137 3096 
Q 3566 2609 3566 1747 
Q 3566 888 3137 398 
Q 2709 -91 1959 -91 
Q 1206 -91 779 398 
Q 353 888 353 1747 
Q 353 2609 779 3096 
Q 1206 3584 1959 3584 
z
" transform="scale(0.015625)"/>
      <path id="DejaVuSans-75" d="M 544 1381 
L 544 3500 
L 1119 3500 
L 1119 1403 
Q 1119 906 1312 657 
Q 1506 409 1894 409 
Q 2359 409 2629 706 
Q 2900 1003 2900 1516 
L 2900 3500 
L 3475 3500 
L 3475 0 
L 2900 0 
L 2900 538 
Q 2691 219 2414 64 
Q 2138 -91 1772 -91 
Q 1169 -91 856 284 
Q 544 659 544 1381 
z
M 1991 3584 
L 1991 3584 
z
" transform="scale(0.015625)"/>
      <path id="DejaVuSans-72" d="M 2631 2963 
Q 2534 3019 2420 3045 
Q 2306 3072 2169 3072 
Q 1681 3072 1420 2755 
Q 1159 2438 1159 1844 
L 1159 0 
L 581 0 
L 581 3500 
L 1159 3500 
L 1159 2956 
Q 1341 3275 1631 3429 
Q 1922 3584 2338 3584 
Q 2397 3584 2469 3576 
Q 2541 3569 2628 3553 
L 2631 2963 
z
" transform="scale(0.015625)"/>
      <path id="DejaVuSans-20" transform="scale(0.015625)"/>
      <path id="DejaVuSans-66" d="M 2375 4863 
L 2375 4384 
L 1825 4384 
Q 1516 4384 1395 4259 
Q 1275 4134 1275 3809 
L 1275 3500 
L 2222 3500 
L 2222 3053 
L 1275 3053 
L 1275 0 
L 697 0 
L 697 3053 
L 147 3053 
L 147 3500 
L 697 3500 
L 697 3744 
Q 697 4328 969 4595 
Q 1241 4863 1831 4863 
L 2375 4863 
z
" transform="scale(0.015625)"/>
      <path id="DejaVuSans-64" d="M 2906 2969 
L 2906 4863 
L 3481 4863 
L 3481 0 
L 2906 0 
L 2906 525 
Q 2725 213 2448 61 
Q 2172 -91 1784 -91 
Q 1150 -91 751 415 
Q 353 922 353 1747 
Q 353 2572 751 3078 
Q 1150 3584 1784 3584 
Q 2172 3584 2448 3432 
Q 2725 3281 2906 2969 
z
M 947 1747 
Q 947 1113 1208 752 
Q 1469 391 1925 391 
Q 2381 391 2643 752 
Q 2906 1113 2906 1747 
Q 2906 2381 2643 2742 
Q 2381 3103 1925 3103 
Q 1469 3103 1208 2742 
Q 947 2381 947 1747 
z
" transform="scale(0.015625)"/>
      <path id="DejaVuSans-61" d="M 2194 1759 
Q 1497 1759 1228 1600 
Q 959 1441 959 1056 
Q 959 750 1161 570 
Q 1363 391 1709 391 
Q 2188 391 2477 730 
Q 2766 1069 2766 1631 
L 2766 1759 
L 2194 1759 
z
M 3341 1997 
L 3341 0 
L 2766 0 
L 2766 531 
Q 2569 213 2275 61 
Q 1981 -91 1556 -91 
Q 1019 -91 701 211 
Q 384 513 384 1019 
Q 384 1609 779 1909 
Q 1175 2209 1959 2209 
L 2766 2209 
L 2766 2266 
Q 2766 2663 2505 2880 
Q 2244 3097 1772 3097 
Q 1472 3097 1187 3025 
Q 903 2953 641 2809 
L 641 3341 
Q 956 3463 1253 3523 
Q 1550 3584 1831 3584 
Q 2591 3584 2966 3190 
Q 3341 2797 3341 1997 
z
" transform="scale(0.015625)"/>
      <path id="DejaVuSans-79" d="M 2059 -325 
Q 1816 -950 1584 -1140 
Q 1353 -1331 966 -1331 
L 506 -1331 
L 506 -850 
L 844 -850 
Q 1081 -850 1212 -737 
Q 1344 -625 1503 -206 
L 1606 56 
L 191 3500 
L 800 3500 
L 1894 763 
L 2988 3500 
L 3597 3500 
L 2059 -325 
z
" transform="scale(0.015625)"/>
     </defs>
     <use xlink:href="#DejaVuSans-48"/>
     <use xlink:href="#DejaVuSans-6f" x="75.195312"/>
     <use xlink:href="#DejaVuSans-75" x="136.376953"/>
     <use xlink:href="#DejaVuSans-72" x="199.755859"/>
     <use xlink:href="#DejaVuSans-20" x="240.869141"/>
     <use xlink:href="#DejaVuSans-6f" x="272.65625"/>
     <use xlink:href="#DejaVuSans-66" x="333.837891"/>
     <use xlink:href="#DejaVuSans-20" x="369.042969"/>
     <use xlink:href="#DejaVuSans-64" x="400.830078"/>
     <use xlink:href="#DejaVuSans-61" x="464.306641"/>
     <use xlink:href="#DejaVuSans-79" x="525.585938"/>
    </g>
   </g>
  </g>
  <g id="axes_2">
   <g id="patch_55">
    <path d="M 49.25 251 
L 404.0625 251 
L 404.0625 158 
L 49.25 158 
z
" style="fill: #ffffff"/>
   </g>
   <g id="patch_56">
    <path d="M 65.377841 251 
L 84.351771 251 
L 84.351771 177.041698 
L 65.377841 177.041698 
z
" clip-path="url(#pad4a0c5241)" style="fill: #008000"/>
   </g>
   <g id="patch_57">
    <path d="M 112.812667 251 
L 131.786598 251 
L 131.786598 215.418476 
L 112.812667 215.418476 
z
" clip-path="url(#pad4a0c5241)" style="fill: #008000"/>
   </g>
   <g id="patch_58">
    <path d="M 160.247493 251 
L 179.221424 251 
L 179.221424 237.652598 
L 160.247493 237.652598 
z
" clip-path="url(#pad4a0c5241)" style="fill: #008000"/>
   </g>
   <g id="patch_59">
    <path d="M 207.68232 251 
L 226.65625 251 
L 226.65625 239.504554 
L 207.68232 239.504554 
z
" clip-path="url(#pad4a0c5241)" style="fill: #008000"/>
   </g>
   <g id="patch_60">
    <path d="M 255.117146 251 
L 274.091076 251 
L 274.091076 203.033025 
L 255.117146 203.033025 
z
" clip-path="url(#pad4a0c5241)" style="fill: #008000"/>
   </g>
   <g id="patch_61">
    <path d="M 302.551972 251 
L 321.525902 251 
L 321.525902 175.093814 
L 302.551972 175.093814 
z
" clip-path="url(#pad4a0c5241)" style="fill: #008000"/>
   </g>
   <g id="patch_62">
    <path d="M 349.986798 251 
L 368.960729 251 
L 368.960729 162.428571 
L 349.986798 162.428571 
z
" clip-path="url(#pad4a0c5241)" style="fill: #008000"/>
   </g>
   <g id="patch_63">
    <path d="M 84.351771 251 
L 103.325702 251 
L 103.325702 209.14581 
L 84.351771 209.14581 
z
" clip-path="url(#pad4a0c5241)" style="fill: #ff0000"/>
   </g>
   <g id="patch_64">
    <path d="M 131.786598 251 
L 150.760528 251 
L 150.760528 220.766496 
L 131.786598 220.766496 
z
" clip-path="url(#pad4a0c5241)" style="fill: #ff0000"/>
   </g>
   <g id="patch_65">
    <path d="M 179.221424 251 
L 198.195354 251 
L 198.195354 230.708432 
L 179.221424 230.708432 
z
" clip-path="url(#pad4a0c5241)" style="fill: #ff0000"/>
   </g>
   <g id="patch_66">
    <path d="M 226.65625 251 
L 245.63018 251 
L 245.63018 228.712584 
L 226.65625 228.712584 
z
" clip-path="url(#pad4a0c5241)" style="fill: #ff0000"/>
   </g>
   <g id="patch_67">
    <path d="M 274.091076 251 
L 293.065007 251 
L 293.065007 214.629729 
L 274.091076 214.629729 
z
" clip-path="url(#pad4a0c5241)" style="fill: #ff0000"/>
   </g>
   <g id="patch_68">
    <path d="M 321.525902 251 
L 340.499833 251 
L 340.499833 199.075969 
L 321.525902 199.075969 
z
" clip-path="url(#pad4a0c5241)" style="fill: #ff0000"/>
   </g>
   <g id="patch_69">
    <path d="M 368.960729 251 
L 387.934659 251 
L 387.934659 201.250351 
L 368.960729 201.250351 
z
" clip-path="url(#pad4a0c5241)" style="fill: #ff0000"/>
   </g>
   <g id="matplotlib.axis_3">
    <g id="xtick_7">
     <g id="line2d_11">
      <g>
       <use xlink:href="#me87b6feb11" x="84.351771" y="251" style="stroke: #000000; stroke-width: 0.8"/>
      </g>
     </g>
     <g id="text_12">
      <!-- Mon -->
      <g transform="translate(73.809584 265.598437)scale(0.1 -0.1)">
       <defs>
        <path id="DejaVuSans-4d" d="M 628 4666 
L 1569 4666 
L 2759 1491 
L 3956 4666 
L 4897 4666 
L 4897 0 
L 4281 0 
L 4281 4097 
L 3078 897 
L 2444 897 
L 1241 4097 
L 1241 0 
L 628 0 
L 628 4666 
z
" transform="scale(0.015625)"/>
        <path id="DejaVuSans-6e" d="M 3513 2113 
L 3513 0 
L 2938 0 
L 2938 2094 
Q 2938 2591 2744 2837 
Q 2550 3084 2163 3084 
Q 1697 3084 1428 2787 
Q 1159 2491 1159 1978 
L 1159 0 
L 581 0 
L 581 3500 
L 1159 3500 
L 1159 2956 
Q 1366 3272 1645 3428 
Q 1925 3584 2291 3584 
Q 2894 3584 3203 3211 
Q 3513 2838 3513 2113 
z
" transform="scale(0.015625)"/>
       </defs>
       <use xlink:href="#DejaVuSans-4d"/>
       <use xlink:href="#DejaVuSans-6f" x="86.279297"/>
       <use xlink:href="#DejaVuSans-6e" x="147.460938"/>
      </g>
     </g>
    </g>
    <g id="xtick_8">
     <g id="line2d_12">
      <g>
       <use xlink:href="#me87b6feb11" x="131.786598" y="251" style="stroke: #000000; stroke-width: 0.8"/>
      </g>
     </g>
     <g id="text_13">
      <!-- Tue -->
      <g transform="translate(123.243629 265.598437)scale(0.1 -0.1)">
       <defs>
        <path id="DejaVuSans-54" d="M -19 4666 
L 3928 4666 
L 3928 4134 
L 2272 4134 
L 2272 0 
L 1638 0 
L 1638 4134 
L -19 4134 
L -19 4666 
z
" transform="scale(0.015625)"/>
        <path id="DejaVuSans-65" d="M 3597 1894 
L 3597 1613 
L 953 1613 
Q 991 1019 1311 708 
Q 1631 397 2203 397 
Q 2534 397 2845 478 
Q 3156 559 3463 722 
L 3463 178 
Q 3153 47 2828 -22 
Q 2503 -91 2169 -91 
Q 1331 -91 842 396 
Q 353 884 353 1716 
Q 353 2575 817 3079 
Q 1281 3584 2069 3584 
Q 2775 3584 3186 3129 
Q 3597 2675 3597 1894 
z
M 3022 2063 
Q 3016 2534 2758 2815 
Q 2500 3097 2075 3097 
Q 1594 3097 1305 2825 
Q 1016 2553 972 2059 
L 3022 2063 
z
" transform="scale(0.015625)"/>
       </defs>
       <use xlink:href="#DejaVuSans-54"/>
       <use xlink:href="#DejaVuSans-75" x="45.958984"/>
       <use xlink:href="#DejaVuSans-65" x="109.337891"/>
      </g>
     </g>
    </g>
    <g id="xtick_9">
     <g id="line2d_13">
      <g>
       <use xlink:href="#me87b6feb11" x="179.221424" y="251" style="stroke: #000000; stroke-width: 0.8"/>
      </g>
     </g>
     <g id="text_14">
      <!-- Wen -->
      <g transform="translate(168.326111 265.598437)scale(0.1 -0.1)">
       <defs>
        <path id="DejaVuSans-57" d="M 213 4666 
L 850 4666 
L 1831 722 
L 2809 4666 
L 3519 4666 
L 4500 722 
L 5478 4666 
L 6119 4666 
L 4947 0 
L 4153 0 
L 3169 4050 
L 2175 0 
L 1381 0 
L 213 4666 
z
" transform="scale(0.015625)"/>
       </defs>
       <use xlink:href="#DejaVuSans-57"/>
       <use xlink:href="#DejaVuSans-65" x="93.001953"/>
       <use xlink:href="#DejaVuSans-6e" x="154.525391"/>
      </g>
     </g>
    </g>
    <g id="xtick_10">
     <g id="line2d_14">
      <g>
       <use xlink:href="#me87b6feb11" x="226.65625" y="251" style="stroke: #000000; stroke-width: 0.8"/>
      </g>
     </g>
     <g id="text_15">
      <!-- Thu -->
      <g transform="translate(217.264844 265.598437)scale(0.1 -0.1)">
       <defs>
        <path id="DejaVuSans-68" d="M 3513 2113 
L 3513 0 
L 2938 0 
L 2938 2094 
Q 2938 2591 2744 2837 
Q 2550 3084 2163 3084 
Q 1697 3084 1428 2787 
Q 1159 2491 1159 1978 
L 1159 0 
L 581 0 
L 581 4863 
L 1159 4863 
L 1159 2956 
Q 1366 3272 1645 3428 
Q 1925 3584 2291 3584 
Q 2894 3584 3203 3211 
Q 3513 2838 3513 2113 
z
" transform="scale(0.015625)"/>
       </defs>
       <use xlink:href="#DejaVuSans-54"/>
       <use xlink:href="#DejaVuSans-68" x="61.083984"/>
       <use xlink:href="#DejaVuSans-75" x="124.462891"/>
      </g>
     </g>
    </g>
    <g id="xtick_11">
     <g id="line2d_15">
      <g>
       <use xlink:href="#me87b6feb11" x="274.091076" y="251" style="stroke: #000000; stroke-width: 0.8"/>
      </g>
     </g>
     <g id="text_16">
      <!-- Fri -->
      <g transform="translate(268.133264 265.598437)scale(0.1 -0.1)">
       <defs>
        <path id="DejaVuSans-46" d="M 628 4666 
L 3309 4666 
L 3309 4134 
L 1259 4134 
L 1259 2759 
L 3109 2759 
L 3109 2228 
L 1259 2228 
L 1259 0 
L 628 0 
L 628 4666 
z
" transform="scale(0.015625)"/>
        <path id="DejaVuSans-69" d="M 603 3500 
L 1178 3500 
L 1178 0 
L 603 0 
L 603 3500 
z
M 603 4863 
L 1178 4863 
L 1178 4134 
L 603 4134 
L 603 4863 
z
" transform="scale(0.015625)"/>
       </defs>
       <use xlink:href="#DejaVuSans-46"/>
       <use xlink:href="#DejaVuSans-72" x="50.269531"/>
       <use xlink:href="#DejaVuSans-69" x="91.382812"/>
      </g>
     </g>
    </g>
    <g id="xtick_12">
     <g id="line2d_16">
      <g>
       <use xlink:href="#me87b6feb11" x="321.525902" y="251" style="stroke: #000000; stroke-width: 0.8"/>
      </g>
     </g>
     <g id="text_17">
      <!-- Sat -->
      <g transform="translate(313.327465 265.598437)scale(0.1 -0.1)">
       <defs>
        <path id="DejaVuSans-53" d="M 3425 4513 
L 3425 3897 
Q 3066 4069 2747 4153 
Q 2428 4238 2131 4238 
Q 1616 4238 1336 4038 
Q 1056 3838 1056 3469 
Q 1056 3159 1242 3001 
Q 1428 2844 1947 2747 
L 2328 2669 
Q 3034 2534 3370 2195 
Q 3706 1856 3706 1288 
Q 3706 609 3251 259 
Q 2797 -91 1919 -91 
Q 1588 -91 1214 -16 
Q 841 59 441 206 
L 441 856 
Q 825 641 1194 531 
Q 1563 422 1919 422 
Q 2459 422 2753 634 
Q 3047 847 3047 1241 
Q 3047 1584 2836 1778 
Q 2625 1972 2144 2069 
L 1759 2144 
Q 1053 2284 737 2584 
Q 422 2884 422 3419 
Q 422 4038 858 4394 
Q 1294 4750 2059 4750 
Q 2388 4750 2728 4690 
Q 3069 4631 3425 4513 
z
" transform="scale(0.015625)"/>
        <path id="DejaVuSans-74" d="M 1172 4494 
L 1172 3500 
L 2356 3500 
L 2356 3053 
L 1172 3053 
L 1172 1153 
Q 1172 725 1289 603 
Q 1406 481 1766 481 
L 2356 481 
L 2356 0 
L 1766 0 
Q 1100 0 847 248 
Q 594 497 594 1153 
L 594 3053 
L 172 3053 
L 172 3500 
L 594 3500 
L 594 4494 
L 1172 4494 
z
" transform="scale(0.015625)"/>
       </defs>
       <use xlink:href="#DejaVuSans-53"/>
       <use xlink:href="#DejaVuSans-61" x="63.476562"/>
       <use xlink:href="#DejaVuSans-74" x="124.755859"/>
      </g>
     </g>
    </g>
    <g id="xtick_13">
     <g id="line2d_17">
      <g>
       <use xlink:href="#me87b6feb11" x="368.960729" y="251" style="stroke: #000000; stroke-width: 0.8"/>
      </g>
     </g>
     <g id="text_18">
      <!-- Sun -->
      <g transform="translate(359.44901 265.598437)scale(0.1 -0.1)">
       <use xlink:href="#DejaVuSans-53"/>
       <use xlink:href="#DejaVuSans-75" x="63.476562"/>
       <use xlink:href="#DejaVuSans-6e" x="126.855469"/>
      </g>
     </g>
    </g>
   </g>
   <g id="matplotlib.axis_4">
    <g id="ytick_5">
     <g id="line2d_18">
      <g>
       <use xlink:href="#m7b25b2cbe2" x="49.25" y="251" style="stroke: #000000; stroke-width: 0.8"/>
      </g>
     </g>
     <g id="text_19">
      <!-- 0 -->
      <g transform="translate(35.8875 254.799219)scale(0.1 -0.1)">
       <use xlink:href="#DejaVuSans-30"/>
      </g>
     </g>
    </g>
    <g id="ytick_6">
     <g id="line2d_19">
      <g>
       <use xlink:href="#m7b25b2cbe2" x="49.25" y="224.353161" style="stroke: #000000; stroke-width: 0.8"/>
      </g>
     </g>
     <g id="text_20">
      <!-- 10000 -->
      <g transform="translate(10.4375 228.15238)scale(0.1 -0.1)">
       <use xlink:href="#DejaVuSans-31"/>
       <use xlink:href="#DejaVuSans-30" x="63.623047"/>
       <use xlink:href="#DejaVuSans-30" x="127.246094"/>
       <use xlink:href="#DejaVuSans-30" x="190.869141"/>
       <use xlink:href="#DejaVuSans-30" x="254.492188"/>
      </g>
     </g>
    </g>
    <g id="ytick_7">
     <g id="line2d_20">
      <g>
       <use xlink:href="#m7b25b2cbe2" x="49.25" y="197.706322" style="stroke: #000000; stroke-width: 0.8"/>
      </g>
     </g>
     <g id="text_21">
      <!-- 20000 -->
      <g transform="translate(10.4375 201.50554)scale(0.1 -0.1)">
       <use xlink:href="#DejaVuSans-32"/>
       <use xlink:href="#DejaVuSans-30" x="63.623047"/>
       <use xlink:href="#DejaVuSans-30" x="127.246094"/>
       <use xlink:href="#DejaVuSans-30" x="190.869141"/>
       <use xlink:href="#DejaVuSans-30" x="254.492188"/>
      </g>
     </g>
    </g>
    <g id="ytick_8">
     <g id="line2d_21">
      <g>
       <use xlink:href="#m7b25b2cbe2" x="49.25" y="171.059483" style="stroke: #000000; stroke-width: 0.8"/>
      </g>
     </g>
     <g id="text_22">
      <!-- 30000 -->
      <g transform="translate(10.4375 174.858701)scale(0.1 -0.1)">
       <defs>
        <path id="DejaVuSans-33" d="M 2597 2516 
Q 3050 2419 3304 2112 
Q 3559 1806 3559 1356 
Q 3559 666 3084 287 
Q 2609 -91 1734 -91 
Q 1441 -91 1130 -33 
Q 819 25 488 141 
L 488 750 
Q 750 597 1062 519 
Q 1375 441 1716 441 
Q 2309 441 2620 675 
Q 2931 909 2931 1356 
Q 2931 1769 2642 2001 
Q 2353 2234 1838 2234 
L 1294 2234 
L 1294 2753 
L 1863 2753 
Q 2328 2753 2575 2939 
Q 2822 3125 2822 3475 
Q 2822 3834 2567 4026 
Q 2313 4219 1838 4219 
Q 1578 4219 1281 4162 
Q 984 4106 628 3988 
L 628 4550 
Q 988 4650 1302 4700 
Q 1616 4750 1894 4750 
Q 2613 4750 3031 4423 
Q 3450 4097 3450 3541 
Q 3450 3153 3228 2886 
Q 3006 2619 2597 2516 
z
" transform="scale(0.015625)"/>
       </defs>
       <use xlink:href="#DejaVuSans-33"/>
       <use xlink:href="#DejaVuSans-30" x="63.623047"/>
       <use xlink:href="#DejaVuSans-30" x="127.246094"/>
       <use xlink:href="#DejaVuSans-30" x="190.869141"/>
       <use xlink:href="#DejaVuSans-30" x="254.492188"/>
      </g>
     </g>
    </g>
   </g>
   <g id="patch_70">
    <path d="M 49.25 251 
L 49.25 158 
" style="fill: none; stroke: #000000; stroke-width: 0.8; stroke-linejoin: miter; stroke-linecap: square"/>
   </g>
   <g id="patch_71">
    <path d="M 404.0625 251 
L 404.0625 158 
" style="fill: none; stroke: #000000; stroke-width: 0.8; stroke-linejoin: miter; stroke-linecap: square"/>
   </g>
   <g id="patch_72">
    <path d="M 49.25 251 
L 404.0625 251 
" style="fill: none; stroke: #000000; stroke-width: 0.8; stroke-linejoin: miter; stroke-linecap: square"/>
   </g>
   <g id="patch_73">
    <path d="M 49.25 158 
L 404.0625 158 
" style="fill: none; stroke: #000000; stroke-width: 0.8; stroke-linejoin: miter; stroke-linecap: square"/>
   </g>
   <g id="text_23">
    <!-- Weekday -->
    <g transform="translate(199.180937 152)scale(0.12 -0.12)">
     <defs>
      <path id="DejaVuSans-6b" d="M 581 4863 
L 1159 4863 
L 1159 1991 
L 2875 3500 
L 3609 3500 
L 1753 1863 
L 3688 0 
L 2938 0 
L 1159 1709 
L 1159 0 
L 581 0 
L 581 4863 
z
" transform="scale(0.015625)"/>
     </defs>
     <use xlink:href="#DejaVuSans-57"/>
     <use xlink:href="#DejaVuSans-65" x="93.001953"/>
     <use xlink:href="#DejaVuSans-65" x="154.525391"/>
     <use xlink:href="#DejaVuSans-6b" x="216.048828"/>
     <use xlink:href="#DejaVuSans-64" x="273.958984"/>
     <use xlink:href="#DejaVuSans-61" x="337.435547"/>
     <use xlink:href="#DejaVuSans-79" x="398.714844"/>
    </g>
   </g>
   <g id="legend_1">
    <g id="patch_74">
     <path d="M 321.325 195.35625 
L 397.0625 195.35625 
Q 399.0625 195.35625 399.0625 193.35625 
L 399.0625 165 
Q 399.0625 163 397.0625 163 
L 321.325 163 
Q 319.325 163 319.325 165 
L 319.325 193.35625 
Q 319.325 195.35625 321.325 195.35625 
z
" style="fill: #ffffff; opacity: 0.8; stroke: #cccccc; stroke-linejoin: miter"/>
    </g>
    <g id="patch_75">
     <path d="M 323.325 174.598437 
L 343.325 174.598437 
L 343.325 167.598437 
L 323.325 167.598437 
z
" style="fill: #008000"/>
    </g>
    <g id="text_24">
     <!-- positive -->
     <g transform="translate(351.325 174.598437)scale(0.1 -0.1)">
      <defs>
       <path id="DejaVuSans-70" d="M 1159 525 
L 1159 -1331 
L 581 -1331 
L 581 3500 
L 1159 3500 
L 1159 2969 
Q 1341 3281 1617 3432 
Q 1894 3584 2278 3584 
Q 2916 3584 3314 3078 
Q 3713 2572 3713 1747 
Q 3713 922 3314 415 
Q 2916 -91 2278 -91 
Q 1894 -91 1617 61 
Q 1341 213 1159 525 
z
M 3116 1747 
Q 3116 2381 2855 2742 
Q 2594 3103 2138 3103 
Q 1681 3103 1420 2742 
Q 1159 2381 1159 1747 
Q 1159 1113 1420 752 
Q 1681 391 2138 391 
Q 2594 391 2855 752 
Q 3116 1113 3116 1747 
z
" transform="scale(0.015625)"/>
       <path id="DejaVuSans-73" d="M 2834 3397 
L 2834 2853 
Q 2591 2978 2328 3040 
Q 2066 3103 1784 3103 
Q 1356 3103 1142 2972 
Q 928 2841 928 2578 
Q 928 2378 1081 2264 
Q 1234 2150 1697 2047 
L 1894 2003 
Q 2506 1872 2764 1633 
Q 3022 1394 3022 966 
Q 3022 478 2636 193 
Q 2250 -91 1575 -91 
Q 1294 -91 989 -36 
Q 684 19 347 128 
L 347 722 
Q 666 556 975 473 
Q 1284 391 1588 391 
Q 1994 391 2212 530 
Q 2431 669 2431 922 
Q 2431 1156 2273 1281 
Q 2116 1406 1581 1522 
L 1381 1569 
Q 847 1681 609 1914 
Q 372 2147 372 2553 
Q 372 3047 722 3315 
Q 1072 3584 1716 3584 
Q 2034 3584 2315 3537 
Q 2597 3491 2834 3397 
z
" transform="scale(0.015625)"/>
       <path id="DejaVuSans-76" d="M 191 3500 
L 800 3500 
L 1894 563 
L 2988 3500 
L 3597 3500 
L 2284 0 
L 1503 0 
L 191 3500 
z
" transform="scale(0.015625)"/>
      </defs>
      <use xlink:href="#DejaVuSans-70"/>
      <use xlink:href="#DejaVuSans-6f" x="63.476562"/>
      <use xlink:href="#DejaVuSans-73" x="124.658203"/>
      <use xlink:href="#DejaVuSans-69" x="176.757812"/>
      <use xlink:href="#DejaVuSans-74" x="204.541016"/>
      <use xlink:href="#DejaVuSans-69" x="243.75"/>
      <use xlink:href="#DejaVuSans-76" x="271.533203"/>
      <use xlink:href="#DejaVuSans-65" x="330.712891"/>
     </g>
    </g>
    <g id="patch_76">
     <path d="M 323.325 189.276562 
L 343.325 189.276562 
L 343.325 182.276562 
L 323.325 182.276562 
z
" style="fill: #ff0000"/>
    </g>
    <g id="text_25">
     <!-- negative -->
     <g transform="translate(351.325 189.276562)scale(0.1 -0.1)">
      <defs>
       <path id="DejaVuSans-67" d="M 2906 1791 
Q 2906 2416 2648 2759 
Q 2391 3103 1925 3103 
Q 1463 3103 1205 2759 
Q 947 2416 947 1791 
Q 947 1169 1205 825 
Q 1463 481 1925 481 
Q 2391 481 2648 825 
Q 2906 1169 2906 1791 
z
M 3481 434 
Q 3481 -459 3084 -895 
Q 2688 -1331 1869 -1331 
Q 1566 -1331 1297 -1286 
Q 1028 -1241 775 -1147 
L 775 -588 
Q 1028 -725 1275 -790 
Q 1522 -856 1778 -856 
Q 2344 -856 2625 -561 
Q 2906 -266 2906 331 
L 2906 616 
Q 2728 306 2450 153 
Q 2172 0 1784 0 
Q 1141 0 747 490 
Q 353 981 353 1791 
Q 353 2603 747 3093 
Q 1141 3584 1784 3584 
Q 2172 3584 2450 3431 
Q 2728 3278 2906 2969 
L 2906 3500 
L 3481 3500 
L 3481 434 
z
" transform="scale(0.015625)"/>
      </defs>
      <use xlink:href="#DejaVuSans-6e"/>
      <use xlink:href="#DejaVuSans-65" x="63.378906"/>
      <use xlink:href="#DejaVuSans-67" x="124.902344"/>
      <use xlink:href="#DejaVuSans-61" x="188.378906"/>
      <use xlink:href="#DejaVuSans-74" x="249.658203"/>
      <use xlink:href="#DejaVuSans-69" x="288.867188"/>
      <use xlink:href="#DejaVuSans-76" x="316.650391"/>
      <use xlink:href="#DejaVuSans-65" x="375.830078"/>
     </g>
    </g>
   </g>
  </g>
 </g>
 <defs>
  <clipPath id="pd639727208">
   <rect x="49.25" y="24" width="354.8125" height="93"/>
  </clipPath>
  <clipPath id="pad4a0c5241">
   <rect x="49.25" y="158" width="354.8125" height="93"/>
  </clipPath>
 </defs>
</svg>
